<?xml version="1.0" encoding="UTF-8"?>
<svg version="1.1" xmlns="http://www.w3.org/2000/svg" width="500" height="500">
<path d="M0 0 C165 0 330 0 500 0 C500 165 500 330 500 500 C335 500 170 500 0 500 C0 335 0 170 0 0 Z " fill="#FEFEFE" transform="translate(0,0)"/>
<path d="M0 0 C6.15720531 2.73273072 8.51935301 5.5744987 11.375 11.5625 C11.74294678 12.2954126 12.11089355 13.0283252 12.48999023 13.78344727 C13.68283242 16.17846452 14.84287159 18.58754541 16 21 C16.85796631 22.75786454 17.71604057 24.51567639 18.57421875 26.2734375 C20.17822745 29.59159476 21.77792937 32.91156646 23.34765625 36.24609375 C23.66742432 36.92341553 23.98719238 37.6007373 24.31665039 38.29858398 C25 40 25 40 25 42 C25.66 42 26.32 42 27 42 C27.26643311 41.14929932 27.53286621 40.29859863 27.80737305 39.42211914 C29.73132352 33.90154314 32.329227 28.69486081 34.85766602 23.43188477 C35.80924121 21.44430671 36.74548923 19.44995755 37.68164062 17.45507812 C38.29333751 16.17663635 38.90593807 14.89862648 39.51953125 13.62109375 C40.34094604 11.89524048 40.34094604 11.89524048 41.17895508 10.13452148 C43.74955982 5.70980045 46.76347182 2.82435212 51 0 C56.84458098 -0.48704841 60.76146191 0.0785076 66 3 C72.82269246 9.26950118 72.46544184 20.19922337 73.25390625 28.859375 C73.35968491 29.9667804 73.46546356 31.07418579 73.57444763 32.21514893 C73.90911084 35.72628729 74.23628521 39.23806748 74.5625 42.75 C74.89335759 46.2760997 75.22585138 49.80202837 75.56126404 53.32769775 C75.76896461 55.51439554 75.973884 57.70135974 76.17567444 59.88861084 C76.26924728 60.88024231 76.36282013 61.87187378 76.45922852 62.89355469 C76.53979996 63.76131531 76.6203714 64.62907593 76.7033844 65.52313232 C77.00628825 68.05250959 77.48900001 70.50543708 78 73 C78.46968718 78.28975567 78.68390573 82.6068587 76.3125 87.4375 C75.1678125 88.7059375 75.1678125 88.7059375 74 90 C73.34 90.78375 72.68 91.5675 72 92.375 C67.26917095 94.9375324 62.26397336 94.77699607 57 94 C51.88990047 91.54715223 50.43413403 88.95520143 48 84 C47.13031575 81.0934334 46.75482924 78.25022413 46.46484375 75.234375 C46.37783203 74.34492188 46.29082031 73.45546875 46.20117188 72.5390625 C46.11416016 71.61867188 46.02714844 70.69828125 45.9375 69.75 C45.84662109 68.81414062 45.75574219 67.87828125 45.66210938 66.9140625 C45.43871957 64.60962033 45.21811272 62.30494663 45 60 C44.79955078 60.52432617 44.59910156 61.04865234 44.39257812 61.58886719 C43.45666716 63.98806751 42.47906271 66.36810116 41.5 68.75 C41.02820313 69.9875 41.02820313 69.9875 40.546875 71.25 C38.32369542 76.55142823 36.3159115 79.1066502 30.98852539 81.38916016 C26.81308554 82.67178146 23.35839516 83.02671513 19.1875 81.2109375 C12.35407263 76.48244981 9.90176153 67.42639274 7 60 C6.02189407 62.93431779 5.83012592 65.42779767 5.70996094 68.49682617 C5.37607793 76.86021184 5.05620323 84.33255612 -0.5 91 C-4.77923493 94.42338795 -8.89760717 94.45307876 -14.19921875 94.41796875 C-18.64712278 93.75419507 -21.26919562 91.47122656 -24 88 C-29.19592139 79.18426129 -25.34125982 65.75188334 -24.1875 56 C-23.90857248 53.60416781 -23.6309682 51.20818537 -23.35366821 48.81216431 C-23.16755626 47.20463422 -22.98068844 45.59719147 -22.7930603 43.98983765 C-22.20878296 38.94791767 -21.68627099 33.90456612 -21.20703125 28.8515625 C-21.08626221 27.62308594 -20.96549316 26.39460938 -20.84106445 25.12890625 C-20.61963722 22.8540862 -20.41042028 20.57803224 -20.21557617 18.30078125 C-19.45659061 10.75765089 -18.10471832 6.74370456 -12.3125 1.625 C-8.11464191 -0.43432661 -4.58983601 -0.99874832 0 0 Z " fill="#FBFCFC" transform="translate(135,196)"/>
<path d="M0 0 C8.90207138 6.52818568 12.97520379 19.39438259 17.5 29.125 C18.29772164 30.83184255 19.09573807 32.53854736 19.89404297 34.24511719 C21.08669384 36.79641392 22.27815612 39.34823107 23.46588135 41.90182495 C25.7469139 46.8034248 28.06845345 51.68140369 30.43359375 56.54296875 C31.4350017 58.63276177 32.43631315 60.72260104 33.4375 62.8125 C34.11945435 64.18160522 34.11945435 64.18160522 34.81518555 65.57836914 C37.56781836 71.41144682 38.82983202 76.5999517 37.8125 83.0625 C37.17219587 84.40869198 36.50727436 85.74359484 35.8125 87.0625 C35.32551583 90.35900821 34.99123238 93.65244547 34.66796875 96.96875 C33.60015656 100.83042695 32.1195334 101.91520725 28.8125 104.0625 C26.09138932 105.42305534 23.92787676 105.20471794 20.8815918 105.22363281 C19.63657394 105.23324036 18.39155609 105.2428479 17.10881042 105.25274658 C15.74311506 105.2575949 14.37741757 105.26187364 13.01171875 105.265625 C11.61407977 105.27137724 10.21644081 105.27713496 8.81880188 105.28289795 C5.88578931 105.29340901 2.95280415 105.29925068 0.01977539 105.30273438 C-3.73295153 105.3082131 -7.48531451 105.33222693 -11.23792744 105.36070633 C-14.1264704 105.37936124 -17.01492629 105.38453986 -19.9035244 105.38607025 C-21.28658216 105.38909194 -22.66963857 105.39710418 -24.0526371 105.41025543 C-25.99115408 105.42737018 -27.92982122 105.42358302 -29.8684082 105.41894531 C-30.97046097 105.42259094 -32.07251373 105.42623657 -33.20796204 105.42999268 C-37.36120993 104.91773601 -39.99534548 103.29880839 -42.875 100.3125 C-44.1875 98.0625 -44.1875 98.0625 -45.0625 94.6875 C-46.41361266 90.33391476 -48.15547376 88.40550329 -51.1875 85.0625 C-52.96314831 81.51120337 -52.70540513 77.89513754 -52.1875 74.0625 C-50.74933948 69.82557368 -48.79425651 65.88149997 -46.8125 61.875 C-45.93897918 60.05598192 -45.06549693 58.23694501 -44.19316101 56.4173584 C-43.23356832 54.42193128 -42.26616943 52.43040832 -41.29833984 50.43896484 C-38.97503519 45.64207977 -36.71535743 40.8160145 -34.45703125 35.98828125 C-33.24606154 33.40556844 -32.03449325 30.82313737 -30.82269287 28.24081421 C-30.02827164 26.5472189 -29.23468373 24.85323244 -28.44195557 23.15884399 C-27.31902275 20.76242891 -26.1896422 18.36915584 -25.05859375 15.9765625 C-24.72672562 15.26514603 -24.39485748 14.55372955 -24.05293274 13.820755 C-18.68496098 2.51433561 -13.03315869 -3.83328197 0 0 Z " fill="#FCFCFC" transform="translate(267.1875,196.9375)"/>
<path d="M0 0 C6.57203315 4.57840052 11.45127495 10.35382484 14 18 C14.17560807 20.91048781 14.27718869 23.77549369 14.3125 26.6875 C14.34150391 27.46544922 14.37050781 28.24339844 14.40039062 29.04492188 C14.50503418 38.6962776 9.83229633 45.08060603 3.25 51.8125 C2.5075 52.534375 1.765 53.25625 1 54 C1.66 54.66 2.32 55.32 3 56 C1.02 56.495 1.02 56.495 -1 57 C-1 58.32 -1 59.64 -1 61 C0.32 61.33 1.64 61.66 3 62 C2.01 62.33 1.02 62.66 0 63 C0 63.99 0 64.98 0 66 C0.99 66.33 1.98 66.66 3 67 C1.02 67.495 1.02 67.495 -1 68 C-1 70.64 -1 73.28 -1 76 C-2.051875 76.4021875 -2.051875 76.4021875 -3.125 76.8125 C-6.04014829 77.93157838 -6.04014829 77.93157838 -8.6875 79.625 C-13.1976303 81.49712956 -17.17946909 81.73799659 -22 81 C-25.375 79.0625 -25.375 79.0625 -28 77 C-30.22602615 76.23060319 -30.22602615 76.23060319 -32 76 C-32 74.35 -32 72.7 -32 71 C-32.99 71 -33.98 71 -35 71 C-35 70.34 -35 69.68 -35 69 C-34.01 69 -33.02 69 -32 69 C-32 67.68 -32 66.36 -32 65 C-32.99 65 -33.98 65 -35 65 C-35 64.34 -35 63.68 -35 63 C-34.01 63 -33.02 63 -32 63 C-32 61.68 -32 60.36 -32 59 C-32.99 59 -33.98 59 -35 59 C-35 58.34 -35 57.68 -35 57 C-34.01 57 -33.02 57 -32 57 C-34.25218103 53.39651035 -36.60070096 50.2987908 -39.5 47.1875 C-46.11379359 39.62075121 -47.81117956 32.87486729 -47.5078125 22.79296875 C-46.33459313 14.02992252 -42.1127615 6.79365716 -35.11328125 1.40234375 C-24.34694519 -5.74204562 -11.38887456 -6.71448431 0 0 Z " fill="#FEBC59" transform="translate(448,111)"/>
<path d="M0 0 C4.84299558 1.87728488 7.68134834 4.34658385 10 9 C10.58854675 11.74020386 10.58854675 11.74020386 10.89135742 14.74560547 C11.0712043 16.44425247 11.0712043 16.44425247 11.25468445 18.17721558 C11.42832268 20.00375168 11.42832268 20.00375168 11.60546875 21.8671875 C11.79886589 23.76756271 11.79886589 23.76756271 11.99617004 25.70632935 C12.26662369 28.39074289 12.53229352 31.07510741 12.78979492 33.76074219 C13.11590276 37.15832849 13.45913988 40.55389338 13.80852795 43.94915581 C14.14474683 47.23354391 14.46849698 50.51911757 14.79296875 53.8046875 C14.91480026 55.00213593 15.03663177 56.19958435 15.16215515 57.43331909 C15.75100146 63.63922712 16.17272886 69.84312988 16.32543945 76.07470703 C16.36095413 77.2807962 16.39646881 78.48688538 16.43305969 79.72952271 C15.91505893 83.64147699 14.74150159 85.22111116 12 88 C7.99414528 90.33674858 3.54217698 90.87999124 -1 90 C-4.81673045 87.89450694 -7.37951749 85.03719764 -9 81 C-9.41064453 78.34619141 -9.41064453 78.34619141 -9.6328125 75.3515625 C-9.75849609 73.71960938 -9.75849609 73.71960938 -9.88671875 72.0546875 C-9.96535156 70.92289062 -10.04398438 69.79109375 -10.125 68.625 C-10.21136719 67.5009375 -10.29773438 66.376875 -10.38671875 65.21875 C-10.76563603 60.13043222 -11.04453661 55.10465343 -11 50 C-11.99 50 -12.98 50 -14 50 C-14.37125 51.19625 -14.7425 52.3925 -15.125 53.625 C-16.56930017 57.91021135 -18.16659163 62.12629756 -19.875 66.3125 C-20.34679687 67.48425781 -20.81859375 68.65601563 -21.3046875 69.86328125 C-23.16704217 73.3090665 -24.664184 74.97079442 -28 77 C-30.640625 77.42578125 -30.640625 77.42578125 -33.25 77.3125 C-34.55710938 77.27576172 -34.55710938 77.27576172 -35.890625 77.23828125 C-38 77 -38 77 -39 76 C-39.08868299 73.04294679 -39.11520296 70.10934944 -39.09765625 67.15234375 C-39.0962413 66.2659169 -39.09482635 65.37949005 -39.09336853 64.46620178 C-39.08775215 61.62326746 -39.07519691 58.78041069 -39.0625 55.9375 C-39.05748711 54.01497509 -39.05292384 52.09244896 -39.04882812 50.16992188 C-39.03777741 45.44658451 -39.02050183 40.72330542 -39 36 C-36.02873292 38.71077243 -35.11756266 41.13151386 -34 45 C-33.34 45 -32.68 45 -32 45 C-31.72978027 44.13358887 -31.45956055 43.26717773 -31.18115234 42.37451172 C-30.03157013 39.09019477 -28.66954666 36.11149733 -27.1015625 33.0078125 C-26.53953125 31.89019531 -25.9775 30.77257812 -25.3984375 29.62109375 C-24.81320313 28.46738281 -24.22796875 27.31367188 -23.625 26.125 C-22.75875 24.40603516 -22.75875 24.40603516 -21.875 22.65234375 C-20.75479609 20.42983874 -19.63177438 18.2087512 -18.50561523 15.98925781 C-17.23166754 13.45995417 -15.99329243 10.91720089 -14.76171875 8.3671875 C-11.43613829 2.01097827 -7.51063879 -1.18589034 0 0 Z " fill="#FCFCFC" transform="translate(194,198)"/>
<path d="M0 0 C3.89753892 4.31889448 5.12793273 6.69278136 5.09765625 12.4453125 C5.09515869 13.41484863 5.09266113 14.38438477 5.09008789 15.38330078 C5.08098389 16.61806152 5.07187988 17.85282227 5.0625 19.125 C5.041875 23.04375 5.02125 26.9625 5 31 C12.92 31 20.84 31 29 31 C28.95359375 29.26492187 28.9071875 27.52984375 28.859375 25.7421875 C28.82184967 23.45314224 28.78545033 21.16407833 28.75 18.875 C28.71648437 17.73289063 28.68296875 16.59078125 28.6484375 15.4140625 C28.57343408 8.96376867 28.55581325 4.85416708 33 0 C36.8610691 -3.40682568 40.61944486 -3.45422031 45.56640625 -3.28515625 C50.34029299 -2.72577626 53.0953525 -0.9779973 56.3125 2.5 C59.11923416 6.65812468 59.13824205 9.90810386 59.17700195 14.82299805 C59.18357315 15.51284286 59.19014435 16.20268768 59.19691467 16.91343689 C59.21662151 19.19619868 59.22830624 21.47889467 59.23828125 23.76171875 C59.24235678 24.54332682 59.2464323 25.32493488 59.25063133 26.13022804 C59.27148395 30.26967732 59.28578744 34.40909356 59.29516602 38.54858398 C59.30621069 42.81112017 59.34058996 47.07313148 59.38033772 51.3354826 C59.4065664 54.62389554 59.41486351 57.9121848 59.41844749 61.20069313 C59.4232997 62.77108098 59.43487458 64.34146382 59.45348549 65.91174889 C59.62417819 81.2723323 59.62417819 81.2723323 55 88 C50.48944614 91.60844309 45.43067056 91.56927562 39.84765625 91.41015625 C35.34563294 90.76171668 33.9061531 89.50228707 31 86 C27.70372575 79.97252709 27.63333116 74.83656219 27.8125 68.0625 C27.874375 64.741875 27.93625 61.42125 28 58 C20.41 58 12.82 58 5 58 C5.11800156 64.92529444 5.11800156 64.92529444 5.27026367 71.84985352 C5.3203418 77.70360923 4.86052545 81.85382468 2 87 C-2.54607169 91.26194221 -7.30060564 91.3443298 -13.26953125 91.28125 C-17.11535443 90.88511371 -19.18370077 89.60507679 -22 87 C-25.07887189 82.87193704 -25.37480451 79.81584146 -25.37231445 74.71875 C-25.37596512 74.00428711 -25.37961578 73.28982422 -25.38337708 72.55371094 C-25.3914543 70.20222887 -25.37789658 67.85144208 -25.36328125 65.5 C-25.3627623 63.86002605 -25.36328135 62.22005146 -25.36479187 60.58007812 C-25.36470227 57.14704065 -25.35429862 53.71423862 -25.33618164 50.28125 C-25.31349492 45.88633346 -25.31295174 41.49176074 -25.31969929 37.09680176 C-25.32304482 33.7115576 -25.31639818 30.32639146 -25.30657005 26.94116211 C-25.30272784 25.32088632 -25.30156577 23.70060183 -25.3031559 22.08032227 C-25.30352781 19.81379741 -25.29087139 17.54770911 -25.2746582 15.28125 C-25.27005081 13.99283203 -25.26544342 12.70441406 -25.26069641 11.37695312 C-24.7853036 5.21891192 -22.66989297 2.0027654 -18 -2 C-12.08655643 -4.65085401 -5.2143565 -3.43673496 0 0 Z M-21 4 C-23.32478374 7.60357443 -23.25908994 10.73747085 -23.2746582 14.96826172 C-23.27976913 15.66146515 -23.28488007 16.35466858 -23.29014587 17.06887817 C-23.30402291 19.35590295 -23.30308636 21.64262567 -23.30078125 23.9296875 C-23.30466965 25.52385571 -23.30900462 27.11802288 -23.31376648 28.71218872 C-23.32122493 32.05278888 -23.32094046 35.39328336 -23.31567383 38.73388672 C-23.30988423 43.00661231 -23.32679942 47.2789037 -23.3500185 51.55155754 C-23.36478008 54.84419264 -23.36562418 58.13672381 -23.36250877 61.42938614 C-23.36302092 63.00419092 -23.3682386 64.57900167 -23.37832069 66.15377426 C-23.39071316 68.36044923 -23.3838771 70.56628679 -23.37231445 72.77294922 C-23.37294388 74.026633 -23.3735733 75.28031677 -23.3742218 76.57199097 C-22.96004677 80.36598628 -21.99652359 82.76431556 -20 86 C-15.49609054 89.14226241 -11.32859769 89.76578649 -6 89 C-2.37267966 87.76807988 -0.57640164 86.8047872 1.65625 83.6875 C3.66093756 78.18626437 3.31416453 72.92466632 3.1875 67.125 C3.125625 63.12375 3.06375 59.1225 3 55 C12.24 55 21.48 55 31 55 C30.8125 67.125 30.8125 67.125 30.72973633 70.91455078 C30.60027066 78.9125707 30.60027066 78.9125707 34 86 C36.15609343 88.12030765 37.38627775 88.89670022 40.3671875 89.3984375 C45.61186603 89.34942181 49.5554939 89.11115427 54 86 C56.30914136 82.56437611 56.23228475 79.55132201 56.1953125 75.484375 C56.18886719 74.23398437 56.18242187 72.98359375 56.17578125 71.6953125 C56.15902344 70.39335937 56.14226562 69.09140625 56.125 67.75 C56.11597656 66.43257813 56.10695313 65.11515625 56.09765625 63.7578125 C56.07408533 60.50502538 56.04118022 57.25260411 56 54 C55.05125 54.804375 54.1025 55.60875 53.125 56.4375 C49.47493889 59.53211703 47.02349016 60.17968271 42.16796875 60.62109375 C38.60618941 59.6006921 36.93483466 56.98016113 35 54 C33.07354388 50.44365551 31.36919587 46.8023083 29.6875 43.125 C29.23310547 42.15046875 28.77871094 41.1759375 28.31054688 40.171875 C27.19899973 37.78497375 26.09838511 35.39298658 25 33 C17.74 33 10.48 33 3 33 C3.04640625 31.26492187 3.0928125 29.52984375 3.140625 27.7421875 C3.17815033 25.45314224 3.21454967 23.16407833 3.25 20.875 C3.28351563 19.73289063 3.31703125 18.59078125 3.3515625 17.4140625 C3.45959289 8.89357796 3.45959289 8.89357796 -1 2 C-6.97910456 -1.98606971 -16.23695555 -1.71565333 -21 4 Z " fill="#F78ECE" transform="translate(335,199)"/>
<path d="M0 0 C3.29609823 2.29960342 4.73435484 4.35977351 6.6875 7.875 C7.19543457 11.44140625 7.19543457 11.44140625 7.20507812 15.4375 C7.2120874 16.17000977 7.21909668 16.90251953 7.22631836 17.65722656 C7.24383397 20.06354382 7.23229954 22.46867209 7.21875 24.875 C7.22144679 26.55599186 7.22533077 28.23698221 7.23034668 29.91796875 C7.23623298 33.43504743 7.22770709 36.9517188 7.20898438 40.46875 C7.18619501 44.96802189 7.1993228 49.46633927 7.22327423 53.96557617 C7.23775591 57.43496847 7.23311544 60.90413594 7.22276306 64.37353516 C7.22010231 66.03206496 7.22334257 67.69061544 7.23268127 69.34912109 C7.24288646 71.67079421 7.22729279 73.99094011 7.20507812 76.3125 C7.20030457 78.29056641 7.20030457 78.29056641 7.19543457 80.30859375 C6.4924657 85.24441172 4.32123919 88.27515582 0.8046875 91.71875 C-3.54455713 94.09398323 -8.53227079 93.55880284 -13.3125 92.875 C-16.74870341 91.28149346 -18.71334372 89.05323661 -20.44277954 85.65231323 C-21.52127017 82.20832586 -21.58156441 79.23582653 -21.60302734 75.62548828 C-21.60974457 74.91423798 -21.61646179 74.20298767 -21.62338257 73.47018433 C-21.64231658 71.12848852 -21.64628435 68.78708001 -21.6484375 66.4453125 C-21.6548685 64.81012862 -21.66159709 63.17494589 -21.66860962 61.5397644 C-21.68057078 58.1151869 -21.68429163 54.69071019 -21.68310547 51.26611328 C-21.68290231 46.88916257 -21.71020552 42.5128614 -21.74464989 38.13606453 C-21.76694424 34.75931866 -21.77094224 31.38272851 -21.76988602 28.0059166 C-21.77223812 26.39284908 -21.78103959 24.77977703 -21.79655075 23.16678238 C-21.81626376 20.90516587 -21.81035341 18.64494225 -21.79833984 16.38330078 C-21.80118988 15.09932404 -21.80403992 13.81534729 -21.80697632 12.49246216 C-21.09516859 7.28505901 -19.12675681 3.48191318 -15.125 -0.0625 C-9.93184547 -2.02435838 -5.21853439 -1.77233243 0 0 Z " fill="#FCFCFC" transform="translate(438.3125,197.125)"/>
<path d="M0 0 C8.90207138 6.52818568 12.97520379 19.39438259 17.5 29.125 C18.29772164 30.83184255 19.09573807 32.53854736 19.89404297 34.24511719 C21.08669384 36.79641392 22.27815612 39.34823107 23.46588135 41.90182495 C25.7469139 46.8034248 28.06845345 51.68140369 30.43359375 56.54296875 C31.4350017 58.63276177 32.43631315 60.72260104 33.4375 62.8125 C34.11945435 64.18160522 34.11945435 64.18160522 34.81518555 65.57836914 C37.56781836 71.41144682 38.82983202 76.5999517 37.8125 83.0625 C37.17219587 84.40869198 36.50727436 85.74359484 35.8125 87.0625 C35.32551583 90.35900821 34.99123238 93.65244547 34.66796875 96.96875 C33.60015656 100.83042695 32.1195334 101.91520725 28.8125 104.0625 C26.09138932 105.42305534 23.92787676 105.20471794 20.8815918 105.22363281 C19.63657394 105.23324036 18.39155609 105.2428479 17.10881042 105.25274658 C15.74311506 105.2575949 14.37741757 105.26187364 13.01171875 105.265625 C11.61407977 105.27137724 10.21644081 105.27713496 8.81880188 105.28289795 C5.88578931 105.29340901 2.95280415 105.29925068 0.01977539 105.30273438 C-3.73295153 105.3082131 -7.48531451 105.33222693 -11.23792744 105.36070633 C-14.1264704 105.37936124 -17.01492629 105.38453986 -19.9035244 105.38607025 C-21.28658216 105.38909194 -22.66963857 105.39710418 -24.0526371 105.41025543 C-25.99115408 105.42737018 -27.92982122 105.42358302 -29.8684082 105.41894531 C-30.97046097 105.42259094 -32.07251373 105.42623657 -33.20796204 105.42999268 C-37.36120993 104.91773601 -39.99534548 103.29880839 -42.875 100.3125 C-44.1875 98.0625 -44.1875 98.0625 -45.0625 94.6875 C-46.41361266 90.33391476 -48.15547376 88.40550329 -51.1875 85.0625 C-52.96314831 81.51120337 -52.70540513 77.89513754 -52.1875 74.0625 C-50.74933948 69.82557368 -48.79425651 65.88149997 -46.8125 61.875 C-45.93897918 60.05598192 -45.06549693 58.23694501 -44.19316101 56.4173584 C-43.23356832 54.42193128 -42.26616943 52.43040832 -41.29833984 50.43896484 C-38.97503519 45.64207977 -36.71535743 40.8160145 -34.45703125 35.98828125 C-33.24606154 33.40556844 -32.03449325 30.82313737 -30.82269287 28.24081421 C-30.02827164 26.5472189 -29.23468373 24.85323244 -28.44195557 23.15884399 C-27.31902275 20.76242891 -26.1896422 18.36915584 -25.05859375 15.9765625 C-24.72672562 15.26514603 -24.39485748 14.55372955 -24.05293274 13.820755 C-18.68496098 2.51433561 -13.03315869 -3.83328197 0 0 Z M-18.1875 7.0625 C-20.66772112 11.27895276 -22.70910388 15.68469036 -24.75 20.125 C-25.35543868 21.413837 -25.96214933 22.70207717 -26.57006836 23.98974609 C-28.14551027 27.33650363 -29.7026416 30.69144162 -31.25488281 34.04901123 C-32.470237 36.67291955 -33.69538472 39.2921901 -34.92103577 41.91130066 C-37.89586495 48.26866588 -40.85557958 54.63290519 -43.78417969 61.01171875 C-44.73082525 63.06970117 -45.68477771 65.12433612 -46.64550781 67.17578125 C-47.09893555 68.15160156 -47.55236328 69.12742187 -48.01953125 70.1328125 C-48.42276611 70.99406738 -48.82600098 71.85532227 -49.24145508 72.74267578 C-50.62099316 76.12548117 -50.87773377 78.4732844 -50.1875 82.0625 C-47.98531814 86.30213359 -45.70987852 89.2804475 -41.1875 91.0625 C-36.44590867 91.88150214 -33.08503984 91.57054142 -28.875 89.1875 C-25.23417688 85.65823413 -23.56773713 80.85273476 -22.1875 76.0625 C-22.1875 75.0725 -22.1875 74.0825 -22.1875 73.0625 C-7.3375 73.5575 -7.3375 73.5575 7.8125 74.0625 C9.4625 78.3525 11.1125 82.6425 12.8125 87.0625 C17.93767185 91.16263748 18.70198696 91.73370196 24.59765625 91.44921875 C29.12740916 90.65830951 31.823065 88.249822 34.6875 84.8125 C36.40579482 80.61222377 36.53409877 76.39844956 35.19863892 72.07531738 C34.3159862 69.99118365 33.34868484 67.97526398 32.33203125 65.953125 C31.78510368 64.81752388 31.78510368 64.81752388 31.22712708 63.65898132 C30.04064223 61.20295253 28.8331212 58.75794755 27.625 56.3125 C26.80028735 54.61610878 25.97722052 52.91891651 25.15576172 51.22094727 C23.91146214 48.64933062 22.66614145 46.07828055 21.41491699 43.51002502 C18.83306413 38.20572304 16.31340942 32.87809605 13.86328125 27.51171875 C13.5663588 26.86258514 13.26943634 26.21345154 12.96351624 25.54464722 C11.59267481 22.54330639 10.22963871 19.53863428 8.87426758 16.53027344 C8.3923999 15.47743164 7.91053223 14.42458984 7.4140625 13.33984375 C7.00494629 12.43484131 6.59583008 11.52983887 6.17431641 10.59741211 C4.32246095 7.15033159 2.38199298 3.84724649 -1.1875 2.0625 C-3.65111641 1.74910811 -3.65111641 1.74910811 -6.4375 1.6875 C-7.37078125 1.63851562 -8.3040625 1.58953125 -9.265625 1.5390625 C-13.36881537 2.27412601 -15.6251705 3.89349533 -18.1875 7.0625 Z " fill="#FCDD5D" transform="translate(267.1875,196.9375)"/>
<path d="M0 0 C6.15720531 2.73273072 8.51935301 5.5744987 11.375 11.5625 C11.74294678 12.2954126 12.11089355 13.0283252 12.48999023 13.78344727 C13.68283242 16.17846452 14.84287159 18.58754541 16 21 C16.85796631 22.75786454 17.71604057 24.51567639 18.57421875 26.2734375 C20.17822745 29.59159476 21.77792937 32.91156646 23.34765625 36.24609375 C23.66742432 36.92341553 23.98719238 37.6007373 24.31665039 38.29858398 C25 40 25 40 25 42 C25.66 42 26.32 42 27 42 C27.26643311 41.14929932 27.53286621 40.29859863 27.80737305 39.42211914 C29.73132352 33.90154314 32.329227 28.69486081 34.85766602 23.43188477 C35.80924121 21.44430671 36.74548923 19.44995755 37.68164062 17.45507812 C38.29333751 16.17663635 38.90593807 14.89862648 39.51953125 13.62109375 C40.34094604 11.89524048 40.34094604 11.89524048 41.17895508 10.13452148 C43.74955982 5.70980045 46.76347182 2.82435212 51 0 C56.84458098 -0.48704841 60.76146191 0.0785076 66 3 C72.82269246 9.26950118 72.46544184 20.19922337 73.25390625 28.859375 C73.35968491 29.9667804 73.46546356 31.07418579 73.57444763 32.21514893 C73.90911084 35.72628729 74.23628521 39.23806748 74.5625 42.75 C74.89335759 46.2760997 75.22585138 49.80202837 75.56126404 53.32769775 C75.76896461 55.51439554 75.973884 57.70135974 76.17567444 59.88861084 C76.26924728 60.88024231 76.36282013 61.87187378 76.45922852 62.89355469 C76.53979996 63.76131531 76.6203714 64.62907593 76.7033844 65.52313232 C77.00628825 68.05250959 77.48900001 70.50543708 78 73 C78.46968718 78.28975567 78.68390573 82.6068587 76.3125 87.4375 C75.1678125 88.7059375 75.1678125 88.7059375 74 90 C73.34 90.78375 72.68 91.5675 72 92.375 C67.26917095 94.9375324 62.26397336 94.77699607 57 94 C51.88990047 91.54715223 50.43413403 88.95520143 48 84 C47.13031575 81.0934334 46.75482924 78.25022413 46.46484375 75.234375 C46.37783203 74.34492188 46.29082031 73.45546875 46.20117188 72.5390625 C46.11416016 71.61867188 46.02714844 70.69828125 45.9375 69.75 C45.84662109 68.81414062 45.75574219 67.87828125 45.66210938 66.9140625 C45.43871957 64.60962033 45.21811272 62.30494663 45 60 C44.79955078 60.52432617 44.59910156 61.04865234 44.39257812 61.58886719 C43.45666716 63.98806751 42.47906271 66.36810116 41.5 68.75 C41.02820313 69.9875 41.02820313 69.9875 40.546875 71.25 C38.32369542 76.55142823 36.3159115 79.1066502 30.98852539 81.38916016 C26.81308554 82.67178146 23.35839516 83.02671513 19.1875 81.2109375 C12.35407263 76.48244981 9.90176153 67.42639274 7 60 C6.02189407 62.93431779 5.83012592 65.42779767 5.70996094 68.49682617 C5.37607793 76.86021184 5.05620323 84.33255612 -0.5 91 C-4.77923493 94.42338795 -8.89760717 94.45307876 -14.19921875 94.41796875 C-18.64712278 93.75419507 -21.26919562 91.47122656 -24 88 C-29.19592139 79.18426129 -25.34125982 65.75188334 -24.1875 56 C-23.90857248 53.60416781 -23.6309682 51.20818537 -23.35366821 48.81216431 C-23.16755626 47.20463422 -22.98068844 45.59719147 -22.7930603 43.98983765 C-22.20878296 38.94791767 -21.68627099 33.90456612 -21.20703125 28.8515625 C-21.08626221 27.62308594 -20.96549316 26.39460938 -20.84106445 25.12890625 C-20.61963722 22.8540862 -20.41042028 20.57803224 -20.21557617 18.30078125 C-19.45659061 10.75765089 -18.10471832 6.74370456 -12.3125 1.625 C-8.11464191 -0.43432661 -4.58983601 -0.99874832 0 0 Z M46 7 C44.58610825 9.33192968 43.42872508 11.4771851 42.3125 13.9375 C41.6429904 15.34555817 40.97234837 16.75307824 40.30078125 18.16015625 C39.7605835 19.30701904 39.7605835 19.30701904 39.20947266 20.47705078 C37.85851386 23.29513884 36.45594563 26.08359757 35.04296875 28.87109375 C34.53918701 29.86568604 34.03540527 30.86027832 33.51635742 31.88500977 C32.51400821 33.86146618 31.51028821 35.83722807 30.50512695 37.81225586 C30.04968506 38.7172583 29.59424316 39.62226074 29.125 40.5546875 C28.71507812 41.36405762 28.30515625 42.17342773 27.8828125 43.00732422 C26.86498091 44.94151781 26.86498091 44.94151781 27 47 C26.34 47 25.68 47 25 47 C24.75507813 46.19433594 24.51015625 45.38867188 24.2578125 44.55859375 C22.73343862 40.24584654 20.84787053 36.18543251 18.875 32.0625 C18.47829102 31.23290771 18.08158203 30.40331543 17.67285156 29.54858398 C15.09174921 24.18976787 12.47913398 18.8476265 9.75 13.5625 C9.44562012 12.9547876 9.14124023 12.3470752 8.82763672 11.72094727 C6.78926008 7.8568225 4.72103889 5.31172326 1 3 C-4.04823034 2.01356419 -8.5794423 2.18825274 -13.0625 4.75 C-16.33956577 8.55562476 -17.26682298 11.65945261 -17.77783203 16.63208008 C-17.89780548 17.76458694 -18.01777893 18.89709381 -18.14138794 20.06391907 C-18.26230804 21.28677109 -18.38322815 22.50962311 -18.5078125 23.76953125 C-18.70333206 25.67202888 -18.70333206 25.67202888 -18.90280151 27.61296082 C-19.17719659 30.3034337 -19.44839143 32.99400565 -19.71435547 35.68530273 C-20.05128764 39.09045116 -20.40177677 42.49403079 -20.75671577 45.89734364 C-21.09789834 49.18732643 -21.42729677 52.47845966 -21.7578125 55.76953125 C-21.94526535 57.57040947 -21.94526535 57.57040947 -22.13650513 59.40766907 C-22.7417971 65.62294564 -23.17531664 71.83447591 -23.32763672 78.0769043 C-23.36283417 79.28267624 -23.39803162 80.48844818 -23.43429565 81.73075867 C-22.91227857 85.66033939 -21.75831091 87.2095064 -19 90 C-14.94685541 92.7020964 -11.7544315 92.52827017 -7 92 C-2.36708939 90.14683576 -0.4444455 87.26749574 2 83 C2.72213403 79.43913564 2.72213403 79.43913564 2.828125 75.6328125 C2.8668573 74.95322479 2.9055896 74.27363708 2.94549561 73.57345581 C3.06408154 71.42446466 3.15743306 69.27525287 3.25 67.125 C3.32645409 65.65876609 3.40456299 64.19261747 3.484375 62.7265625 C3.67538942 59.15182713 3.84381224 55.57644584 4 52 C4.99 52 5.98 52 7 52 C7.37125 53.19625 7.7425 54.3925 8.125 55.625 C9.56930017 59.91021135 11.16659163 64.12629756 12.875 68.3125 C13.34679687 69.48425781 13.81859375 70.65601563 14.3046875 71.86328125 C16.16379562 75.30305965 17.68394621 76.95592505 21 79 C23.48166095 79.62318879 23.48166095 79.62318879 26 79.5 C26.825 79.5103125 27.65 79.520625 28.5 79.53125 C32.08899295 78.768589 33.45419826 77.69367406 36 75 C37.8759573 71.56506516 39.34793044 68.00108902 40.8125 64.375 C41.21919922 63.40820312 41.62589844 62.44140625 42.04492188 61.4453125 C44.1676301 56.86890281 44.1676301 56.86890281 45 52 C45.99 52 46.98 52 48 52 C48.10145653 53.64273236 48.20284676 55.28546883 48.30395508 56.92822266 C48.39380941 58.36424922 48.48613902 59.80012281 48.58081055 61.23583984 C48.81959391 64.88758537 49.02868268 68.53367756 49.1484375 72.19140625 C49.22964844 74.13853516 49.22964844 74.13853516 49.3125 76.125 C49.36857422 77.89230469 49.36857422 77.89230469 49.42578125 79.6953125 C50.24217907 84.39376528 52.54103309 87.43682117 55.75 90.875 C59.13103224 92.56551612 62.34079464 92.52173641 66 92 C70.21256681 90.41035215 72.73458461 88.897461 75 85 C75.40916824 81.74587553 75.40916824 81.74587553 75.26074219 78.13500977 C75.24908398 77.47347932 75.23742577 76.81194887 75.22541428 76.13037205 C75.06574104 69.34223182 74.49944954 62.59475503 73.828125 55.83984375 C73.70443542 54.56573135 73.58074585 53.29161896 73.45330811 51.97889709 C73.19159041 49.3156038 72.92651863 46.65289177 72.65625 43.99047852 C72.31249786 40.59297605 71.99137605 37.19372581 71.67543411 33.79354 C71.36632653 30.51581001 71.03319371 27.24051892 70.703125 23.96484375 C70.59252747 22.7523143 70.48192993 21.53978485 70.36798096 20.29051208 C69.71585532 14.12773845 69.20389582 9.68648085 65 5 C57.79810651 0.19873767 51.88254562 0.79053554 46 7 Z " fill="#222222" transform="translate(135,196)"/>
<path d="M0 0 C6.57203315 4.57840052 11.45127495 10.35382484 14 18 C14.17560807 20.91048781 14.27718869 23.77549369 14.3125 26.6875 C14.34150391 27.46544922 14.37050781 28.24339844 14.40039062 29.04492188 C14.50503418 38.6962776 9.83229633 45.08060603 3.25 51.8125 C2.5075 52.534375 1.765 53.25625 1 54 C1.66 54.66 2.32 55.32 3 56 C1.02 56.495 1.02 56.495 -1 57 C-1 58.32 -1 59.64 -1 61 C0.32 61.33 1.64 61.66 3 62 C2.01 62.33 1.02 62.66 0 63 C0 63.99 0 64.98 0 66 C0.99 66.33 1.98 66.66 3 67 C1.02 67.495 1.02 67.495 -1 68 C-1 70.64 -1 73.28 -1 76 C-2.051875 76.4021875 -2.051875 76.4021875 -3.125 76.8125 C-6.04014829 77.93157838 -6.04014829 77.93157838 -8.6875 79.625 C-13.1976303 81.49712956 -17.17946909 81.73799659 -22 81 C-25.375 79.0625 -25.375 79.0625 -28 77 C-30.22602615 76.23060319 -30.22602615 76.23060319 -32 76 C-32 74.35 -32 72.7 -32 71 C-32.99 71 -33.98 71 -35 71 C-35 70.34 -35 69.68 -35 69 C-34.01 69 -33.02 69 -32 69 C-32 67.68 -32 66.36 -32 65 C-32.99 65 -33.98 65 -35 65 C-35 64.34 -35 63.68 -35 63 C-34.01 63 -33.02 63 -32 63 C-32 61.68 -32 60.36 -32 59 C-32.99 59 -33.98 59 -35 59 C-35 58.34 -35 57.68 -35 57 C-34.01 57 -33.02 57 -32 57 C-34.25218103 53.39651035 -36.60070096 50.2987908 -39.5 47.1875 C-46.11379359 39.62075121 -47.81117956 32.87486729 -47.5078125 22.79296875 C-46.33459313 14.02992252 -42.1127615 6.79365716 -35.11328125 1.40234375 C-24.34694519 -5.74204562 -11.38887456 -6.71448431 0 0 Z M-38.4375 7.3125 C-44.74930503 15.06518173 -45.95593954 22.07394291 -45 32 C-43.47327891 39.64544051 -39.76054859 45.23945141 -34.3125 50.6875 C-32.1897307 52.8102693 -31.22974492 54.33274504 -30 57 C-25.51641705 56.95400528 -21.04279935 56.7989489 -16.5625 56.625 C-15.30244141 56.61339844 -14.04238281 56.60179687 -12.74414062 56.58984375 C-5.71799739 56.25963336 -1.64789277 55.53370795 3.22265625 50.23828125 C10.25790691 41.29703252 14.06168016 32.40932341 13 21 C10.57055961 11.4071811 5.32859341 5.07205564 -2.97265625 -0.0546875 C-15.39701006 -5.84793147 -29.35648449 -2.21350176 -38.4375 7.3125 Z " fill="#1F3144" transform="translate(448,111)"/>
<path d="M0 0 C3.89753892 4.31889448 5.12793273 6.69278136 5.09765625 12.4453125 C5.09515869 13.41484863 5.09266113 14.38438477 5.09008789 15.38330078 C5.08098389 16.61806152 5.07187988 17.85282227 5.0625 19.125 C5.041875 23.04375 5.02125 26.9625 5 31 C12.92 31 20.84 31 29 31 C28.95359375 29.26492187 28.9071875 27.52984375 28.859375 25.7421875 C28.82184967 23.45314224 28.78545033 21.16407833 28.75 18.875 C28.71648437 17.73289063 28.68296875 16.59078125 28.6484375 15.4140625 C28.57343408 8.96376867 28.55581325 4.85416708 33 0 C36.8610691 -3.40682568 40.61944486 -3.45422031 45.56640625 -3.28515625 C50.34029299 -2.72577626 53.0953525 -0.9779973 56.3125 2.5 C59.11923416 6.65812468 59.13824205 9.90810386 59.17700195 14.82299805 C59.18357315 15.51284286 59.19014435 16.20268768 59.19691467 16.91343689 C59.21662151 19.19619868 59.22830624 21.47889467 59.23828125 23.76171875 C59.24235678 24.54332682 59.2464323 25.32493488 59.25063133 26.13022804 C59.27148395 30.26967732 59.28578744 34.40909356 59.29516602 38.54858398 C59.30621069 42.81112017 59.34058996 47.07313148 59.38033772 51.3354826 C59.4065664 54.62389554 59.41486351 57.9121848 59.41844749 61.20069313 C59.4232997 62.77108098 59.43487458 64.34146382 59.45348549 65.91174889 C59.62417819 81.2723323 59.62417819 81.2723323 55 88 C50.48944614 91.60844309 45.43067056 91.56927562 39.84765625 91.41015625 C35.34563294 90.76171668 33.9061531 89.50228707 31 86 C27.70372575 79.97252709 27.63333116 74.83656219 27.8125 68.0625 C27.874375 64.741875 27.93625 61.42125 28 58 C20.41 58 12.82 58 5 58 C5.11800156 64.92529444 5.11800156 64.92529444 5.27026367 71.84985352 C5.3203418 77.70360923 4.86052545 81.85382468 2 87 C-2.54607169 91.26194221 -7.30060564 91.3443298 -13.26953125 91.28125 C-17.11535443 90.88511371 -19.18370077 89.60507679 -22 87 C-25.07887189 82.87193704 -25.37480451 79.81584146 -25.37231445 74.71875 C-25.37596512 74.00428711 -25.37961578 73.28982422 -25.38337708 72.55371094 C-25.3914543 70.20222887 -25.37789658 67.85144208 -25.36328125 65.5 C-25.3627623 63.86002605 -25.36328135 62.22005146 -25.36479187 60.58007812 C-25.36470227 57.14704065 -25.35429862 53.71423862 -25.33618164 50.28125 C-25.31349492 45.88633346 -25.31295174 41.49176074 -25.31969929 37.09680176 C-25.32304482 33.7115576 -25.31639818 30.32639146 -25.30657005 26.94116211 C-25.30272784 25.32088632 -25.30156577 23.70060183 -25.3031559 22.08032227 C-25.30352781 19.81379741 -25.29087139 17.54770911 -25.2746582 15.28125 C-25.27005081 13.99283203 -25.26544342 12.70441406 -25.26069641 11.37695312 C-24.7853036 5.21891192 -22.66989297 2.0027654 -18 -2 C-12.08655643 -4.65085401 -5.2143565 -3.43673496 0 0 Z M-21 4 C-23.32478374 7.60357443 -23.25908994 10.73747085 -23.2746582 14.96826172 C-23.27976913 15.66146515 -23.28488007 16.35466858 -23.29014587 17.06887817 C-23.30402291 19.35590295 -23.30308636 21.64262567 -23.30078125 23.9296875 C-23.30466965 25.52385571 -23.30900462 27.11802288 -23.31376648 28.71218872 C-23.32122493 32.05278888 -23.32094046 35.39328336 -23.31567383 38.73388672 C-23.30988423 43.00661231 -23.32679942 47.2789037 -23.3500185 51.55155754 C-23.36478008 54.84419264 -23.36562418 58.13672381 -23.36250877 61.42938614 C-23.36302092 63.00419092 -23.3682386 64.57900167 -23.37832069 66.15377426 C-23.39071316 68.36044923 -23.3838771 70.56628679 -23.37231445 72.77294922 C-23.37294388 74.026633 -23.3735733 75.28031677 -23.3742218 76.57199097 C-22.96004677 80.36598628 -21.99652359 82.76431556 -20 86 C-15.49609054 89.14226241 -11.32859769 89.76578649 -6 89 C-2.37267966 87.76807988 -0.57640164 86.8047872 1.65625 83.6875 C3.66093756 78.18626437 3.31416453 72.92466632 3.1875 67.125 C3.125625 63.12375 3.06375 59.1225 3 55 C12.24 55 21.48 55 31 55 C30.8125 67.125 30.8125 67.125 30.72973633 70.91455078 C30.60027066 78.9125707 30.60027066 78.9125707 34 86 C36.15609343 88.12030765 37.38627775 88.89670022 40.3671875 89.3984375 C45.59377315 89.34959091 49.63240463 89.19580149 54 86 C56.74810331 81.50932082 57.37804023 78.12327213 57.38818359 72.89648438 C57.39344055 72.21274246 57.39869751 71.52900055 57.40411377 70.82453918 C57.41723938 68.58070539 57.40860276 66.3375901 57.3984375 64.09375 C57.40046039 62.52486028 57.40337362 60.95597148 57.40713501 59.38708496 C57.41154827 56.1054587 57.4051597 52.82407809 57.39111328 49.54248047 C57.37402179 45.34601028 57.38386836 41.15011578 57.40183067 36.95366669 C57.41269565 33.71591898 57.40920978 30.4783067 57.4014473 27.24055481 C57.39945278 25.69366894 57.40187817 24.14677058 57.40888596 22.59989929 C57.41654551 20.43410899 57.40483478 18.26923785 57.38818359 16.10351562 C57.38460342 14.25868591 57.38460342 14.25868591 57.38095093 12.37658691 C56.86803431 7.8303123 55.4056569 4.45179444 52.21484375 1.15625 C47.55619594 -1.27577778 42.079944 -0.70823047 37 0 C33.94745265 1.67178049 32.55180249 3.89639503 31 7 C30.91489795 8.9593604 30.89282344 10.92162794 30.90234375 12.8828125 C30.90484131 13.93355957 30.90733887 14.98430664 30.90991211 16.06689453 C30.91901611 17.40606934 30.92812012 18.74524414 30.9375 20.125 C30.958125 24.37375 30.97875 28.6225 31 33 C21.76 33 12.52 33 3 33 C3.25 20.875 3.25 20.875 3.36035156 17.08544922 C3.4234549 10.76799061 3.40983014 6.71122141 -1 2 C-6.97910456 -1.98606971 -16.23695555 -1.71565333 -21 4 Z " fill="#090809" transform="translate(335,199)"/>
<path d="M0 0 C1.09296387 0.04314331 1.09296387 0.04314331 2.20800781 0.0871582 C9.18996577 12.66157444 10.00238388 22.9057952 9.14550781 37.0871582 C9.06192796 38.94117032 8.98182924 40.79534277 8.90527344 42.6496582 C8.71280321 47.13168042 8.47382369 51.60891229 8.20800781 56.0871582 C5.00655999 53.08375174 2.63314716 50.58886209 0.96972656 46.51293945 C0.62490234 45.68084961 0.28007812 44.84875977 -0.07519531 43.99145508 C-0.58469727 42.70851563 -0.58469727 42.70851563 -1.10449219 41.3996582 C-1.46349609 40.53276367 -1.8225 39.66586914 -2.19238281 38.77270508 C-4.79199219 32.40985166 -4.79199219 32.40985166 -4.79199219 30.0871582 C-5.78199219 30.0871582 -6.77199219 30.0871582 -7.79199219 30.0871582 C-7.83686768 31.00005615 -7.88174316 31.9129541 -7.92797852 32.85351562 C-8.10169975 36.25546629 -8.28760514 39.65630261 -8.48168945 43.05712891 C-8.56304775 44.52626883 -8.63960729 45.99568296 -8.71118164 47.46533203 C-8.81519786 49.58367624 -8.93670736 51.7004187 -9.06152344 53.81762695 C-9.12960205 55.09017334 -9.19768066 56.36271973 -9.26782227 57.67382812 C-9.80954539 61.2014625 -10.6799748 63.23884117 -12.79199219 66.0871582 C-13.12199219 66.0871582 -13.45199219 66.0871582 -13.79199219 66.0871582 C-13.83839452 58.61127881 -13.87390145 51.13543063 -13.89561653 43.65943623 C-13.90604028 40.18778192 -13.92017356 36.71622638 -13.94287109 33.24462891 C-13.9688192 29.25072294 -13.97847661 25.25692023 -13.98730469 21.26293945 C-14.00278854 19.39863029 -14.00278854 19.39863029 -14.01858521 17.49665833 C-14.01873627 16.33583237 -14.01888733 15.17500641 -14.01904297 13.97900391 C-14.02348419 12.95974319 -14.02792542 11.94048248 -14.03250122 10.89033508 C-13.69479409 6.95429652 -12.80434016 4.10170693 -9.99511719 1.28637695 C-6.64007363 -0.53986129 -3.72750843 -0.14713849 0 0 Z " fill="#5BDFE4" transform="translate(146.7919921875,217.912841796875)"/>
<path d="M0 0 C6.49239657 1.36085168 10.64077071 5.1139414 14.3125 10.4375 C18.66016062 17.49810084 20.02036719 23.74039609 19 32 C16.92690897 39.6463311 13.68159523 45.12248225 7.76953125 50.37890625 C5.7787681 52.07313047 5.7787681 52.07313047 4 55 C1.20263672 55.52416992 1.20263672 55.52416992 -2.3203125 55.73046875 C-3.57714844 55.81103516 -4.83398438 55.89160156 -6.12890625 55.97460938 C-7.46092113 56.04587954 -8.79295266 56.11683908 -10.125 56.1875 C-11.46492354 56.26887908 -12.80476954 56.35154568 -14.14453125 56.43554688 C-17.42914267 56.63640441 -20.71397933 56.82397447 -24 57 C-24.3304834 56.4536792 -24.6609668 55.9073584 -25.00146484 55.34448242 C-25.44184082 54.62623291 -25.8822168 53.9079834 -26.3359375 53.16796875 C-26.7695459 52.45664795 -27.2031543 51.74532715 -27.64990234 51.01245117 C-29.44755768 48.33287197 -31.69400021 46.24531558 -34 44 C-35.875 41.3125 -35.875 41.3125 -37 39 C-36.67 38.34 -36.34 37.68 -36 37 C-35.57589844 37.39832031 -35.15179688 37.79664063 -34.71484375 38.20703125 C-28.01729445 44.25690546 -22.16900287 46.67218344 -13.06640625 46.41015625 C-6.45752837 45.52616621 -1.09686888 42.54495659 3.4375 37.6875 C8.08581729 31.56436249 9.63474744 25.47590775 9.421875 17.8125 C8.39887168 10.99247786 4.5565316 5.06281289 0 0 Z " fill="#FBFAF9" transform="translate(442,111)"/>
<path d="M0 0 C8.90207138 6.52818568 12.97520379 19.39438259 17.5 29.125 C18.29772164 30.83184255 19.09573807 32.53854736 19.89404297 34.24511719 C21.08669384 36.79641392 22.27815612 39.34823107 23.46588135 41.90182495 C25.7469139 46.8034248 28.06845345 51.68140369 30.43359375 56.54296875 C31.4350017 58.63276177 32.43631315 60.72260104 33.4375 62.8125 C34.11945435 64.18160522 34.11945435 64.18160522 34.81518555 65.57836914 C37.6025159 71.48497404 38.63202662 76.52981045 37.8125 83.0625 C36.08776501 87.37433748 33.04560104 91.02862724 28.8125 93.0625 C23.89938218 93.97688582 19.14496038 94.22463815 14.5859375 91.953125 C10.42318217 88.65834844 8.39116895 85.07709548 6.8125 80.0625 C6.8125 78.7425 6.8125 77.4225 6.8125 76.0625 C-6.5525 76.5575 -6.5525 76.5575 -20.1875 77.0625 C-22.6625 83.0025 -22.6625 83.0025 -25.1875 89.0625 C-28.80519712 92.94490666 -32.00456043 93.3682706 -37.125 93.6875 C-42.37170006 93.51804136 -45.16632324 92.42664427 -48.8828125 88.765625 C-51.88495295 84.84666322 -52.71372073 81.54343135 -52.58496094 76.67333984 C-51.77200514 71.33319899 -49.18665618 66.67481098 -46.8125 61.875 C-45.93897918 60.05598192 -45.06549693 58.23694501 -44.19316101 56.4173584 C-43.23356832 54.42193128 -42.26616943 52.43040832 -41.29833984 50.43896484 C-38.97503519 45.64207977 -36.71535743 40.8160145 -34.45703125 35.98828125 C-33.24606154 33.40556844 -32.03449325 30.82313737 -30.82269287 28.24081421 C-30.02827164 26.5472189 -29.23468373 24.85323244 -28.44195557 23.15884399 C-27.31902275 20.76242891 -26.1896422 18.36915584 -25.05859375 15.9765625 C-24.72672562 15.26514603 -24.39485748 14.55372955 -24.05293274 13.820755 C-18.68496098 2.51433561 -13.03315869 -3.83328197 0 0 Z M-18.1875 7.0625 C-20.66772112 11.27895276 -22.70910388 15.68469036 -24.75 20.125 C-25.35543868 21.413837 -25.96214933 22.70207717 -26.57006836 23.98974609 C-28.14551027 27.33650363 -29.7026416 30.69144162 -31.25488281 34.04901123 C-32.470237 36.67291955 -33.69538472 39.2921901 -34.92103577 41.91130066 C-37.89586495 48.26866588 -40.85557958 54.63290519 -43.78417969 61.01171875 C-44.73082525 63.06970117 -45.68477771 65.12433612 -46.64550781 67.17578125 C-47.09893555 68.15160156 -47.55236328 69.12742187 -48.01953125 70.1328125 C-48.42276611 70.99406738 -48.82600098 71.85532227 -49.24145508 72.74267578 C-50.62099316 76.12548117 -50.87773377 78.4732844 -50.1875 82.0625 C-47.98531814 86.30213359 -45.70987852 89.2804475 -41.1875 91.0625 C-36.44590867 91.88150214 -33.08503984 91.57054142 -28.875 89.1875 C-25.23417688 85.65823413 -23.56773713 80.85273476 -22.1875 76.0625 C-22.1875 75.0725 -22.1875 74.0825 -22.1875 73.0625 C-7.3375 73.5575 -7.3375 73.5575 7.8125 74.0625 C9.4625 78.3525 11.1125 82.6425 12.8125 87.0625 C17.93767185 91.16263748 18.70198696 91.73370196 24.59765625 91.44921875 C29.12740916 90.65830951 31.823065 88.249822 34.6875 84.8125 C36.40579482 80.61222377 36.53409877 76.39844956 35.19863892 72.07531738 C34.3159862 69.99118365 33.34868484 67.97526398 32.33203125 65.953125 C31.78510368 64.81752388 31.78510368 64.81752388 31.22712708 63.65898132 C30.04064223 61.20295253 28.8331212 58.75794755 27.625 56.3125 C26.80028735 54.61610878 25.97722052 52.91891651 25.15576172 51.22094727 C23.91146214 48.64933062 22.66614145 46.07828055 21.41491699 43.51002502 C18.83306413 38.20572304 16.31340942 32.87809605 13.86328125 27.51171875 C13.5663588 26.86258514 13.26943634 26.21345154 12.96351624 25.54464722 C11.59267481 22.54330639 10.22963871 19.53863428 8.87426758 16.53027344 C8.3923999 15.47743164 7.91053223 14.42458984 7.4140625 13.33984375 C7.00494629 12.43484131 6.59583008 11.52983887 6.17431641 10.59741211 C4.32246095 7.15033159 2.38199298 3.84724649 -1.1875 2.0625 C-3.65111641 1.74910811 -3.65111641 1.74910811 -6.4375 1.6875 C-7.37078125 1.63851562 -8.3040625 1.58953125 -9.265625 1.5390625 C-13.36881537 2.27412601 -15.6251705 3.89349533 -18.1875 7.0625 Z " fill="#1C1C1C" transform="translate(267.1875,196.9375)"/>
<path d="M0 0 C4.73434651 2.64242596 7.46652251 6.85773882 9 12 C8.3125 14.875 8.3125 14.875 7 17 C5.68638302 19.62723396 5.78746091 21.72610561 5.68359375 24.6640625 C5.64169922 25.78554687 5.59980469 26.90703125 5.55664062 28.0625 C5.51732422 29.238125 5.47800781 30.41375 5.4375 31.625 C5.39431641 32.80835938 5.35113281 33.99171875 5.30664062 35.2109375 C5.20032662 38.14047907 5.09963783 41.07022377 5 44 C-2.92 44 -10.84 44 -19 44 C-19 43.67 -19 43.34 -19 43 C-10.585 42.505 -10.585 42.505 -2 42 C-2.9384375 40.05996094 -3.876875 38.11992187 -4.84375 36.12109375 C-5.75049744 34.22280271 -6.65255483 32.32235006 -7.55419922 30.42163086 C-8.17986945 29.10908002 -8.81033604 27.79880375 -9.44580078 26.4909668 C-10.36222478 24.60273054 -11.26067209 22.70678945 -12.15625 20.80859375 C-12.70087891 19.67220459 -13.24550781 18.53581543 -13.80664062 17.36499023 C-15.12454879 13.64880197 -15.34580454 10.9147073 -15 7 C-11.1322904 0.78403814 -7.22889473 -0.76093629 0 0 Z " fill="#F689CB" transform="translate(359,186)"/>
<path d="M0 0 C3.29609823 2.29960342 4.73435484 4.35977351 6.6875 7.875 C7.19543457 11.44140625 7.19543457 11.44140625 7.20507812 15.4375 C7.2120874 16.17000977 7.21909668 16.90251953 7.22631836 17.65722656 C7.24383397 20.06354382 7.23229954 22.46867209 7.21875 24.875 C7.22144679 26.55599186 7.22533077 28.23698221 7.23034668 29.91796875 C7.23623298 33.43504743 7.22770709 36.9517188 7.20898438 40.46875 C7.18619501 44.96802189 7.1993228 49.46633927 7.22327423 53.96557617 C7.23775591 57.43496847 7.23311544 60.90413594 7.22276306 64.37353516 C7.22010231 66.03206496 7.22334257 67.69061544 7.23268127 69.34912109 C7.24288646 71.67079421 7.22729279 73.99094011 7.20507812 76.3125 C7.20030457 78.29056641 7.20030457 78.29056641 7.19543457 80.30859375 C6.4924657 85.24441172 4.32123919 88.27515582 0.8046875 91.71875 C-3.54455713 94.09398323 -8.53227079 93.55880284 -13.3125 92.875 C-16.74870341 91.28149346 -18.71334372 89.05323661 -20.44277954 85.65231323 C-21.52127017 82.20832586 -21.58156441 79.23582653 -21.60302734 75.62548828 C-21.60974457 74.91423798 -21.61646179 74.20298767 -21.62338257 73.47018433 C-21.64231658 71.12848852 -21.64628435 68.78708001 -21.6484375 66.4453125 C-21.6548685 64.81012862 -21.66159709 63.17494589 -21.66860962 61.5397644 C-21.68057078 58.1151869 -21.68429163 54.69071019 -21.68310547 51.26611328 C-21.68290231 46.88916257 -21.71020552 42.5128614 -21.74464989 38.13606453 C-21.76694424 34.75931866 -21.77094224 31.38272851 -21.76988602 28.0059166 C-21.77223812 26.39284908 -21.78103959 24.77977703 -21.79655075 23.16678238 C-21.81626376 20.90516587 -21.81035341 18.64494225 -21.79833984 16.38330078 C-21.80118988 15.09932404 -21.80403992 13.81534729 -21.80697632 12.49246216 C-21.09516859 7.28505901 -19.12675681 3.48191318 -15.125 -0.0625 C-9.93184547 -2.02435838 -5.21853439 -1.77233243 0 0 Z M-17.26525879 6.09458733 C-19.02078513 9.07915412 -18.99308962 12.0965807 -18.92773438 15.45336914 C-18.93328339 16.1874852 -18.9388324 16.92160126 -18.94454956 17.67796326 C-18.95630023 20.08937151 -18.93212248 22.49888128 -18.90625 24.91015625 C-18.90453774 26.59354059 -18.90460575 28.2769276 -18.90637207 29.96031189 C-18.90472151 33.48169599 -18.88607099 37.00244141 -18.85449219 40.52368164 C-18.81478457 45.03192124 -18.81045206 49.53932623 -18.81795502 54.04770756 C-18.82102762 57.52135329 -18.80889441 60.99481221 -18.79182434 64.4684124 C-18.78480587 66.13054673 -18.78166841 67.79270222 -18.78251648 69.45485115 C-18.78071414 71.77896371 -18.75929748 74.10208482 -18.73242188 76.42602539 C-18.73535248 77.10927887 -18.73828308 77.79253235 -18.74130249 78.49649048 C-18.66507415 82.77931239 -17.93076231 85.47156202 -15.3125 88.875 C-11.26351194 91.57432537 -8.06317841 91.41028771 -3.3125 90.875 C0.95810569 89.11105417 2.67722387 86.97628934 4.6875 82.875 C5.14699217 79.42523349 5.14699217 79.42523349 5.09155273 75.60961914 C5.10184761 74.54033424 5.10184761 74.54033424 5.11235046 73.44944763 C5.13058914 71.10281215 5.12678533 68.75684712 5.12109375 66.41015625 C5.12565708 64.77257572 5.1309631 63.13499711 5.13697815 61.49742126 C5.14590354 58.06859549 5.14349285 54.64000269 5.13354492 51.21118164 C5.12205752 46.82512842 5.14226554 42.43988058 5.17146206 38.05393314 C5.18984114 34.6729169 5.18952821 31.29209303 5.18382454 27.91103935 C5.18367152 26.29436552 5.18969956 24.67767848 5.20211601 23.06105232 C5.21705685 20.79678503 5.20632822 18.53399756 5.18920898 16.26977539 C5.18904282 14.98357803 5.18887665 13.69738068 5.18870544 12.37220764 C4.5997212 8.26251523 3.27225063 6.08528707 0.6875 2.875 C-1.97286074 1.54481963 -4.15505382 1.55834861 -7.125 1.4375 C-8.16269531 1.37691406 -9.20039063 1.31632813 -10.26953125 1.25390625 C-13.81631627 1.97783285 -15.06124752 3.29191044 -17.26525879 6.09458733 Z " fill="#1F1F1F" transform="translate(438.3125,197.125)"/>
<path d="M0 0 C1.13953125 -0.03738281 2.2790625 -0.07476562 3.453125 -0.11328125 C7.38220148 0.39414687 8.95742065 1.56578418 11.75 4.3125 C13.46802382 7.74854765 12.8696618 11.69688896 12.84765625 15.4765625 C12.8462413 16.38377045 12.84482635 17.29097839 12.84336853 18.22567749 C12.83776096 21.12965155 12.82520718 24.03354915 12.8125 26.9375 C12.80748598 28.90364472 12.8029229 30.86979065 12.79882812 32.8359375 C12.78778906 37.6614879 12.77051935 42.48698097 12.75 47.3125 C9.79206578 43.765942 7.94931696 39.78556499 6.02734375 35.625 C5.68119522 34.88548096 5.33504669 34.14596191 4.97840881 33.3840332 C3.87709774 31.02885372 2.78214291 28.67078502 1.6875 26.3125 C0.58787701 23.95489291 -0.51302217 21.59788515 -1.61412048 19.2409668 C-2.29754852 17.77682992 -2.97985868 16.31217058 -3.66090393 14.84692383 C-5.50847387 10.87388506 -5.50847387 10.87388506 -7.49389648 6.96875 C-8.25 5.3125 -8.25 5.3125 -7.9375 3.125 C-6.45916463 -0.77242961 -3.85888438 0.08219597 0 0 Z " fill="#FEFDFD" transform="translate(378.25,198.6875)"/>
<path d="M0 0 C3.63982359 4.31825225 5.26741548 9.38533737 7.3046875 14.58984375 C8.81733846 18.1117092 8.81733846 18.1117092 11.6640625 20.56640625 C14 23 14 23 14.59375 25.9375 C14.54734375 27.4534375 14.54734375 27.4534375 14.5 29 C14.4896875 30.010625 14.479375 31.02125 14.46875 32.0625 C13.78243491 36.3634079 12.14911347 39.04787741 8.8125 41.8125 C5.09870465 43.38054693 1.96753336 43.86739596 -2 43 C-5.29181731 40.42379515 -7.42163187 37.87417633 -9 34 C-7.515 33.505 -7.515 33.505 -6 33 C-2.81003474 26.62006949 -1.71015724 19.91088675 -1.4375 12.875 C-1.24556044 8.50531223 -1.00613087 4.2739774 0 0 Z " fill="#5CDDE2" transform="translate(141,254)"/>
<path d="M0 0 C9.24 0 18.48 0 28 0 C28.3125 12.125 28.3125 12.125 28.38793945 15.91455078 C28.59915978 23.89541677 28.59915978 23.89541677 32 31 C36.27493233 33.84995488 39.98795338 33.37414967 45 33 C49.48989156 32.11670532 49.48989156 32.11670532 52.375 28.875 C52.684375 27.946875 52.684375 27.946875 53 27 C53.495 28.485 53.495 28.485 54 30 C49.42634656 34.82087795 46.78866369 36.15911289 40.1875 36.375 C33.50798872 36.30239662 33.50798872 36.30239662 30.4375 33.9375 C24.87649106 27.23577127 24.59028588 21.46402895 24.8125 13.0625 C24.874375 9.741875 24.93625 6.42125 25 3 C17.41 3 9.82 3 2 3 C2.11800156 9.92529444 2.11800156 9.92529444 2.27026367 16.84985352 C2.3203418 22.70360923 1.86052545 26.85382468 -1 32 C-5.54495007 36.26089069 -10.29800898 36.34439938 -16.265625 36.28125 C-20.11794785 35.88501108 -22.20993489 34.64698485 -25 32 C-26.375 29.25 -26.375 29.25 -27 27 C-26.34 26.34 -25.68 25.68 -25 25 C-24.608125 25.94875 -24.21625 26.8975 -23.8125 27.875 C-22.29370533 31.05208525 -22.29370533 31.05208525 -19.8125 32.375 C-14.61728068 33.52949318 -10.59392727 33.56082626 -5.625 31.8125 C-2.51953982 29.66825369 -2.10713442 28.54439831 -1 25 C-0.63879498 22.10444631 -0.63879498 22.10444631 -0.5859375 19.04296875 C-0.55032715 18.04031982 -0.5147168 17.0376709 -0.47802734 16.00463867 C-0.44402832 14.74498291 -0.4100293 13.48532715 -0.375 12.1875 C-0.189375 6.1546875 -0.189375 6.1546875 0 0 Z " fill="#1D1D1D" transform="translate(338,254)"/>
<path d="M0 0 C6.57203315 4.57840052 11.45127495 10.35382484 14 18 C14.07051114 20.73865287 14.09357765 23.45027588 14.0625 26.1875 C14.05798828 26.93708984 14.05347656 27.68667969 14.04882812 28.45898438 C14.03706354 30.30602383 14.01912865 32.15302213 14 34 C13.67 34 13.34 34 13 34 C12.97421875 33.17757812 12.9484375 32.35515625 12.921875 31.5078125 C12.39745264 21.18622695 10.57173291 12.39964807 3 5 C-5.4015998 -1.28412343 -13.62417412 -1.97414959 -24 -1 C-32.16558696 1.36139947 -37.85460295 6.61912433 -42.09375 13.87109375 C-45.29531329 21.0005009 -45.01082167 29.50869643 -42.75 36.875 C-40.85336577 41.77611556 -38.61107168 45.77251682 -34.375 49 C-32 51 -32 51 -30 57 C-25.05 57 -20.1 57 -15 57 C-15 57.33 -15 57.66 -15 58 C-19.95 58.33 -24.9 58.66 -30 59 C-30 60.32 -30 61.64 -30 63 C-29.195625 62.89171875 -29.195625 62.89171875 -28.375 62.78125 C-20.24610176 61.81861731 -12.17033709 61.90876795 -4 62 C-4 62.33 -4 62.66 -4 63 C-12.69980864 64.01286753 -21.25492893 64.10621544 -30 64 C-30.33 65.32 -30.66 66.64 -31 68 C-31 67.01 -31 66.02 -31 65 C-32.32 65 -33.64 65 -35 65 C-35 64.34 -35 63.68 -35 63 C-34.01 63 -33.02 63 -32 63 C-32 61.68 -32 60.36 -32 59 C-32.99 59 -33.98 59 -35 59 C-35 58.34 -35 57.68 -35 57 C-34.01 57 -33.02 57 -32 57 C-34.25218103 53.39651035 -36.60070096 50.2987908 -39.5 47.1875 C-46.11379359 39.62075121 -47.81117956 32.87486729 -47.5078125 22.79296875 C-46.33459313 14.02992252 -42.1127615 6.79365716 -35.11328125 1.40234375 C-24.34694519 -5.74204562 -11.38887456 -6.71448431 0 0 Z " fill="#243444" transform="translate(448,111)"/>
<path d="M0 0 C1.1015625 1.75390625 1.1015625 1.75390625 2 4 C0.01100223 11.24975276 -5.77578595 16.92090301 -11 22 C-10.34 22.66 -9.68 23.32 -9 24 C-10.32 24.33 -11.64 24.66 -13 25 C-13 26.32 -13 27.64 -13 29 C-11.68 29.33 -10.36 29.66 -9 30 C-9.99 30.33 -10.98 30.66 -12 31 C-12 31.99 -12 32.98 -12 34 C-11.34 34.33 -10.68 34.66 -10 35 C-11.65 35 -13.3 35 -15 35 C-15.33 33.68 -15.66 32.36 -16 31 C-24.58 31 -33.16 31 -42 31 C-42 29.68 -42 28.36 -42 27 C-40.02 26.67 -38.04 26.34 -36 26 C-36.33 25.34 -36.66 24.68 -37 24 C-36.00987915 23.97196289 -36.00987915 23.97196289 -34.99975586 23.94335938 C-31.97609695 23.83521062 -28.95839343 23.668132 -25.9375 23.5 C-24.89916016 23.47164062 -23.86082031 23.44328125 -22.79101562 23.4140625 C-17.13956596 23.0552403 -13.77744076 22.51000971 -9.9296875 18.1640625 C-8.91330942 16.8049261 -7.93493303 15.41639556 -7 14 C-6.50000488 13.27425781 -6.00000977 12.54851562 -5.48486328 11.80078125 C-2.94869408 8.03614017 -1.21187426 4.40681547 0 0 Z " fill="#334354" transform="translate(460,143)"/>
<path d="M0 0 C3.29479607 2.29869493 4.73606096 4.3611485 6.6875 7.875 C7.16851807 11.40585327 7.16851807 11.40585327 7.14160156 15.34912109 C7.14218567 16.07176147 7.14276978 16.79440186 7.14337158 17.53894043 C7.14060187 19.90927462 7.10956532 22.27832512 7.078125 24.6484375 C7.07065858 26.29895338 7.06496754 27.94947817 7.06097412 29.6000061 C7.04574917 33.93044794 7.00649501 38.26034759 6.9621582 42.59057617 C6.92113735 47.0147366 6.9029486 51.43898519 6.8828125 55.86328125 C6.83999719 64.53410214 6.77178461 73.2044835 6.6875 81.875 C5.6975 82.37 5.6975 82.37 4.6875 82.875 C4.67870064 81.50103813 4.67870064 81.50103813 4.66972351 80.09931946 C4.61179261 71.46232812 4.53971352 62.82559528 4.45178509 54.18885517 C4.40707916 49.74872468 4.36782357 45.308686 4.34106445 40.8684082 C4.31503361 36.58236639 4.27463292 32.29667779 4.22431374 28.01085472 C4.20764351 26.37666407 4.19613018 24.74241232 4.18988609 23.10814857 C4.18024648 20.81692196 4.1521904 18.5265993 4.11987305 16.2355957 C4.10876999 14.93209671 4.09766693 13.62859772 4.08622742 12.28559875 C3.66299193 8.66536508 2.87735615 6.75620037 0.6875 3.875 C-2.00356907 2.52946547 -4.18415422 2.66905886 -7.1875 2.625 C-8.23679687 2.59921875 -9.28609375 2.5734375 -10.3671875 2.546875 C-13.61806586 2.90904182 -14.93600767 3.69367854 -17.3125 5.875 C-17.3125 4.555 -17.3125 3.235 -17.3125 1.875 C-12.36340227 -2.59515279 -5.94499104 -2.01905356 0 0 Z " fill="#020202" transform="translate(438.3125,197.125)"/>
<path d="M0 0 C0.99 0 1.98 0 3 0 C3.27150879 0.67579102 3.54301758 1.35158203 3.82275391 2.04785156 C5.07104114 5.1234031 6.34759865 8.18643288 7.625 11.25 C8.05167969 12.31347656 8.47835937 13.37695312 8.91796875 14.47265625 C11.41064601 20.38811422 13.05111075 24.25435881 19 27 C21.7282504 27.78215588 21.7282504 27.78215588 24 28 C24 28.33 24 28.66 24 29 C20.24248755 29.52605174 16.61358792 29.99888776 13.27734375 27.93359375 C8.1335485 22.4605956 5.69679745 14.89500342 3 8 C2.02189407 10.93431779 1.83012592 13.42779767 1.70996094 16.49682617 C1.37607793 24.86021184 1.05620323 32.33255612 -4.5 39 C-7.941274 41.7530192 -10.41611746 42.12440409 -14.6875 42.0625 C-15.89986328 42.04896484 -15.89986328 42.04896484 -17.13671875 42.03515625 C-17.75160156 42.02355469 -18.36648437 42.01195312 -19 42 C-19 41.34 -19 40.68 -19 40 C-18.25234375 39.91363281 -17.5046875 39.82726562 -16.734375 39.73828125 C-10.45823546 38.96155785 -10.45823546 38.96155785 -5.375 35.5 C-3.29856399 31.72466179 -2.78540887 29.36925013 -2.5 25.0390625 C-2.4175 23.84539062 -2.335 22.65171875 -2.25 21.421875 C-2.1675 20.16890625 -2.085 18.9159375 -2 17.625 C-1.83659699 15.15863577 -1.67006303 12.69247645 -1.5 10.2265625 C-1.4278125 9.12908691 -1.355625 8.03161133 -1.28125 6.90087891 C-1.04684887 4.48321032 -0.67653453 2.32488272 0 0 Z " fill="#0B1A1B" transform="translate(139,248)"/>
<path d="M0 0 C2.05264866 2.05264866 2.56528526 3.13767959 3.5078125 5.80859375 C3.77207031 6.55560547 4.03632813 7.30261719 4.30859375 8.07226562 C4.57800781 8.85279297 4.84742188 9.63332031 5.125 10.4375 C5.40214844 11.21416016 5.67929687 11.99082031 5.96484375 12.79101562 C8 18.61076047 8 18.61076047 8 22 C3.05 22 -1.9 22 -7 22 C-6.2291387 16.60397092 -5.33641881 12.6324443 -3.5 7.625 C-3.0565625 6.40039062 -2.613125 5.17578125 -2.15625 3.9140625 C-1 1 -1 1 0 0 Z " fill="#272727" transform="translate(260,229)"/>
<path d="M0 0 C1.12591553 0.00523682 2.25183105 0.01047363 3.41186523 0.01586914 C4.62680664 0.0190918 5.84174805 0.02231445 7.09350586 0.02563477 C8.37290039 0.03401367 9.65229492 0.04239258 10.97045898 0.05102539 C12.2537207 0.05553711 13.53698242 0.06004883 14.85913086 0.06469727 C18.04211921 0.07652994 21.22501661 0.09301471 24.40795898 0.11352539 C24.73795898 2.09352539 25.06795898 4.07352539 25.40795898 6.11352539 C15.83795898 6.11352539 6.26795898 6.11352539 -3.59204102 6.11352539 C-3.59204102 0.15732307 -3.59204102 0.15732307 0 0 Z " fill="#FDFDFD" transform="translate(249.592041015625,272.886474609375)"/>
<path d="M0 0 C4.39158329 1.4638611 4.87947433 3.97831338 7 8 C8.32 5.36 9.64 2.72 11 0 C11.99 0.33 12.98 0.66 14 1 C15.34807677 4.29701062 15.10070113 7.7354961 15.0625 11.25 C15.05347656 12.32765625 15.04445312 13.4053125 15.03515625 14.515625 C15.02355469 15.33546875 15.01195312 16.1553125 15 17 C14.01 16.67 13.02 16.34 12 16 C10.8125 12.9375 10.8125 12.9375 10 10 C9.34 11.65 8.68 13.3 8 15 C7.01 14.67 6.02 14.34 5 14 C3.8125 11.4375 3.8125 11.4375 3 9 C2.01 11.64 1.02 14.28 0 17 C-0.66 17 -1.32 17 -2 17 C-2.22084624 10.90218999 -2.01167675 5.78357065 0 0 Z " fill="#161616" transform="translate(184,327)"/>
<path d="M0 0 C0.99 0 1.98 0 3 0 C4.20731692 8.68836995 5.38064163 17.20294908 5 26 C4.34 26 3.68 26 3 26 C2.67 26.66 2.34 27.32 2 28 C1.34 21.4 0.68 14.8 0 8 C-2.30284671 13.73177641 -2.30284671 13.73177641 -4.54492188 19.48730469 C-6.74361367 24.68653678 -8.81256322 27.26044249 -14.09179688 29.41699219 C-16.30841006 30.09422764 -18.18265409 30.41552471 -20.5 30.25 C-22.2325 30.12625 -22.2325 30.12625 -24 30 C-22 27 -22 27 -19.7578125 26.48046875 C-18.00859292 26.28582265 -16.25856877 26.09827052 -14.5078125 25.91796875 C-10.17789286 24.33302932 -8.78609714 20.6846232 -6.93994141 16.72827148 C-5.83772043 14.20830445 -4.78602558 11.67285549 -3.75 9.125 C-3.38648438 8.24585938 -3.02296875 7.36671875 -2.6484375 6.4609375 C-1.75983901 4.30959379 -0.87721376 2.15600499 0 0 Z " fill="#262626" transform="translate(180,248)"/>
<path d="M0 0 C0.66 0.33 1.32 0.66 2 1 C2 1.99 2 2.98 2 4 C0.700625 3.979375 -0.59875 3.95875 -1.9375 3.9375 C-3.29165633 3.91600546 -4.64756083 3.92851801 -6 4 C-7.40432936 5.17718985 -7.40432936 5.17718985 -7.125 8.5 C-7.40432936 11.82281015 -7.40432936 11.82281015 -6 13 C-4.33382885 13.04063832 -2.66611905 13.042721 -1 13 C-0.67 12.01 -0.34 11.02 0 10 C-1.65 9.67 -3.3 9.34 -5 9 C-4.67 8.34 -4.34 7.68 -4 7 C-1.66705225 6.95758277 0.66702567 6.95907063 3 7 C4 8 4 8 4.3125 10.875 C4 14 4 14 2.5 15.875 C-1.058574 17.4763583 -4.16931738 17.82422474 -8 17 C-11.24985922 14.31886615 -11.89575014 12.64866582 -12.5625 8.5 C-12 5 -12 5 -9.9375 2.0625 C-6.32000344 -0.47744439 -4.33327174 -0.49055907 0 0 Z " fill="#1B1B1B" transform="translate(258,327)"/>
<path d="M0 0 C0.33 0 0.66 0 1 0 C1.00808685 0.91819519 1.01617371 1.83639038 1.02450562 2.78240967 C1.10243741 11.43437771 1.18972391 20.08618986 1.28752708 28.737957 C1.33747883 33.18595 1.38380898 37.63391939 1.421875 42.08203125 C1.45874198 46.37448419 1.50510578 50.66673899 1.55806351 54.95902252 C1.57659995 56.59684016 1.5917107 58.23470026 1.60334396 59.87258148 C1.62021936 62.1662374 1.64925702 64.45944029 1.68115234 66.75292969 C1.69447601 68.05864929 1.70779968 69.3643689 1.7215271 70.70965576 C1.98273417 73.79599265 2.24688318 75.48939412 4 78 C8.04485657 80.69657104 11.25307196 80.5422677 16 80 C19.96655774 78.31210309 21.22410353 76.80549244 23 73 C24.485 72.505 24.485 72.505 26 72 C25.00596616 76.27434552 23.61318904 79.36671866 20.0390625 82.078125 C15.55408372 84.10581655 10.76245137 83.81437267 6 83 C3.08179574 81.65355924 2.11540128 80.57278534 0 78 C-1.18351134 73.91222355 -1.08752324 69.96399512 -1.02172852 65.73120117 C-1.01212097 65.01846039 -1.00251343 64.3057196 -0.99261475 63.57138062 C-0.95977899 61.22847123 -0.91938867 58.88575743 -0.87890625 56.54296875 C-0.85459003 54.91344379 -0.83074723 53.2839117 -0.80735779 51.65437317 C-0.74466626 47.37504936 -0.67555769 43.09585248 -0.60510254 38.81665039 C-0.53428387 34.44618487 -0.46954801 30.07562969 -0.40429688 25.70507812 C-0.27547712 17.13661944 -0.13987653 8.56828529 0 0 Z " fill="#4F4F4F" transform="translate(419,207)"/>
<path d="M0 0 C9.57 0 19.14 0 29 0 C31.475 6.435 31.475 6.435 34 13 C38.36920936 16.27690702 39.63296099 16.53236461 44.74609375 16.35546875 C48.9399261 15.69404978 51.7994884 13.60068213 54.3125 10.25 C55.34616985 6.86708049 55.64811566 3.51884343 56 0 C56.66 0.33 57.32 0.66 58 1 C58.36958964 8.26859626 57.39538243 11.2360972 52.5625 16.8125 C48.72481852 19.82507996 44.63362906 19.76537505 39.91015625 19.53125 C34.85443676 18.60832671 33.28155296 17.03357552 30 13 C28.68 9.37 27.36 5.74 26 2 C13.13 1.505 13.13 1.505 0 1 C0 0.67 0 0.34 0 0 Z " fill="#0E0D08" transform="translate(247,271)"/>
<path d="M0 0 C3.66161578 1.22053859 4.16270474 2.36782304 6.1875 5.5625 C6.71730469 6.38878906 7.24710937 7.21507812 7.79296875 8.06640625 C8.19128906 8.70449219 8.58960938 9.34257812 9 10 C9.33 6.7 9.66 3.4 10 0 C10.99 0 11.98 0 13 0 C13 5.61 13 11.22 13 17 C8.40804906 15.85201226 8.12179476 15.26471427 5.75 11.4375 C5.22921875 10.61121094 4.7084375 9.78492188 4.171875 8.93359375 C3.78515625 8.29550781 3.3984375 7.65742188 3 7 C2.67 10.3 2.34 13.6 2 17 C1.01 17 0.02 17 -1 17 C-1.02684679 14.35409986 -1.04676357 11.70846904 -1.0625 9.0625 C-1.07087891 8.30775391 -1.07925781 7.55300781 -1.08789062 6.77539062 C-1.09652441 4.85005687 -1.05224333 2.92464419 -1 1 C-0.67 0.67 -0.34 0.34 0 0 Z " fill="#080808" transform="translate(279,327)"/>
<path d="M0 0 C0.99 0.33 1.98 0.66 3 1 C3 2.98 3 4.96 3 7 C5.31 7 7.62 7 10 7 C10 4.69 10 2.38 10 0 C10.99 0 11.98 0 13 0 C13 5.61 13 11.22 13 17 C12.01 17 11.02 17 10 17 C10 14.69 10 12.38 10 10 C7.69 10 5.38 10 3 10 C3 11.98 3 13.96 3 16 C1.68 16 0.36 16 -1 16 C-1.02685095 13.52076199 -1.04676547 11.0418116 -1.0625 8.5625 C-1.07506836 7.50192383 -1.07506836 7.50192383 -1.08789062 6.41992188 C-1.09653588 4.61306441 -1.05220011 2.80612397 -1 1 C-0.67 0.67 -0.34 0.34 0 0 Z " fill="#121212" transform="translate(219,327)"/>
<path d="M0 0 C2.75105422 -0.10812003 5.49785087 -0.18734945 8.25 -0.25 C9.02730469 -0.28351563 9.80460937 -0.31703125 10.60546875 -0.3515625 C16.42997175 -0.45112665 16.42997175 -0.45112665 19.546875 2.015625 C20.02640625 2.67046875 20.5059375 3.3253125 21 4 C16.71699258 7.5142625 13.69310932 8.65372186 8.12109375 8.390625 C4.8668697 7.79132039 3.16995907 6.44120395 1 4 C0.375 1.859375 0.375 1.859375 0 0 Z " fill="#F8D858" transform="translate(279,280)"/>
<path d="M0 0 C3 1 3 1 4.38671875 3.58203125 C4.81597656 4.64808594 5.24523437 5.71414063 5.6875 6.8125 C6.34298828 8.39998047 6.34298828 8.39998047 7.01171875 10.01953125 C8 13 8 13 8 17 C7.01 17 6.02 17 5 17 C4.67 16.01 4.34 15.02 4 14 C1.69 13.67 -0.62 13.34 -3 13 C-3.33 14.32 -3.66 15.64 -4 17 C-4.99 17 -5.98 17 -7 17 C-6.37954537 12.76677156 -4.89476441 9.47709705 -2.9375 5.6875 C-2.38964844 4.61886719 -1.84179688 3.55023438 -1.27734375 2.44921875 C-0.64505859 1.23685547 -0.64505859 1.23685547 0 0 Z " fill="#101010" transform="translate(208,327)"/>
<path d="M0 0 C3 1 3 1 5 4 C8.27773504 3.24849977 8.27773504 3.24849977 10 0 C10.99 0 11.98 0 13 0 C12.38722388 2.96175123 11.74627478 4.38058783 10 7 C10.3241369 10.32240324 10.60776303 11.60776303 13 14 C13 14.99 13 15.98 13 17 C11.125 16.6875 11.125 16.6875 9 16 C8.34 15.01 7.68 14.02 7 13 C6.34 13 5.68 13 5 13 C4.2884375 13.99 4.2884375 13.99 3.5625 15 C3.046875 15.66 2.53125 16.32 2 17 C1.01 17 0.02 17 -1 17 C-0.35455571 13.51460083 1.10134397 10.97180943 3 8 C2.319375 7.236875 1.63875 6.47375 0.9375 5.6875 C0.298125 4.800625 -0.34125 3.91375 -1 3 C-0.67 2.01 -0.34 1.02 0 0 Z " fill="#131313" transform="translate(306,327)"/>
<path d="M0 0 C0 1.65 0 3.3 0 5 C-8.91 5 -17.82 5 -27 5 C-27 3.68 -27 2.36 -27 1 C-17.98175113 -0.06996173 -9.06335876 -0.10234659 0 0 Z " fill="#F4F5F6" transform="translate(445,180)"/>
<path d="M0 0 C1.37478516 0.01740234 1.37478516 0.01740234 2.77734375 0.03515625 C3.69644531 0.04417969 4.61554688 0.05320312 5.5625 0.0625 C6.27277344 0.07410156 6.98304688 0.08570313 7.71484375 0.09765625 C7.71484375 1.08765625 7.71484375 2.07765625 7.71484375 3.09765625 C5.40484375 3.09765625 3.09484375 3.09765625 0.71484375 3.09765625 C0.71484375 4.41765625 0.71484375 5.73765625 0.71484375 7.09765625 C2.36484375 7.09765625 4.01484375 7.09765625 5.71484375 7.09765625 C5.71484375 8.08765625 5.71484375 9.07765625 5.71484375 10.09765625 C4.06484375 10.09765625 2.41484375 10.09765625 0.71484375 10.09765625 C0.71484375 11.41765625 0.71484375 12.73765625 0.71484375 14.09765625 C3.02484375 14.09765625 5.33484375 14.09765625 7.71484375 14.09765625 C7.71484375 15.08765625 7.71484375 16.07765625 7.71484375 17.09765625 C6.06909809 17.12453776 4.42322962 17.14399748 2.77734375 17.16015625 C1.86082031 17.17175781 0.94429688 17.18335938 0 17.1953125 C-2.28515625 17.09765625 -2.28515625 17.09765625 -3.28515625 16.09765625 C-3.38490657 13.58629521 -3.42397808 11.1086221 -3.41015625 8.59765625 C-3.41402344 7.89511719 -3.41789062 7.19257813 -3.421875 6.46875 C-3.40969189 0.14571333 -3.40969189 0.14571333 0 0 Z " fill="#151515" transform="translate(267.28515625,326.90234375)"/>
<path d="M0 0 C1.35223027 -0.11038614 2.70725149 -0.18664949 4.0625 -0.25 C4.81660156 -0.29640625 5.57070312 -0.3428125 6.34765625 -0.390625 C10.8982566 0.27956651 14.54690955 2.08062133 17.3215332 5.74560547 C18.52876348 7.81200808 19.59299835 9.90338461 20.625 12.0625 C21.00325928 12.8145874 21.38151855 13.5666748 21.77124023 14.34155273 C24.66976045 20.15288383 27.43555137 26.03346877 30 32 C28.515 32.495 28.515 32.495 27 33 C26.68772461 32.3294458 26.37544922 31.6588916 26.05371094 30.96801758 C24.62612157 27.91286009 23.18817986 24.86268554 21.75 21.8125 C21.25886719 20.75740234 20.76773438 19.70230469 20.26171875 18.61523438 C19.77832031 17.59365234 19.29492188 16.57207031 18.796875 15.51953125 C18.13703613 14.11344604 18.13703613 14.11344604 17.46386719 12.67895508 C15.56128343 9.19712527 13.62412983 5.81206491 10 4 C8.46331135 3.77532169 6.92031946 3.59203195 5.375 3.4375 C4.55773437 3.35371094 3.74046875 3.26992187 2.8984375 3.18359375 C2.27195313 3.12300781 1.64546875 3.06242188 1 3 C0.67 2.01 0.34 1.02 0 0 Z " fill="#1D1D1D" transform="translate(126,196)"/>
<path d="M0 0 C0 0.33 0 0.66 0 1 C-1.01707031 1.11214844 -1.01707031 1.11214844 -2.0546875 1.2265625 C-11.16618865 2.51378288 -18.62158726 5.56017226 -24.4375 12.9375 C-28.76507647 19.39219034 -30.49588191 25.33392832 -31 33 C-31.33 33 -31.66 33 -32 33 C-32.70257334 22.02424312 -31.61044344 15.79598604 -24.8125 7.25 C-16.85622164 0.88497731 -10.12084479 -0.78253955 0 0 Z " fill="#F6BB62" transform="translate(432,106)"/>
<path d="M0 0 C-3.72916667 6.36458333 -3.72916667 6.36458333 -7 8 C-11.28641152 8.57732111 -14.77831405 8.71513324 -18.5625 6.5 C-19.036875 6.005 -19.51125 5.51 -20 5 C-13.72109244 -0.84084424 -8.3271763 -0.56349313 0 0 Z " fill="#F7D859" transform="translate(242,280)"/>
<path d="M0 0 C0 1.32 0 2.64 0 4 C-18.82004556 6.29612756 -18.82004556 6.29612756 -28 6 C-28 4.68 -28 3.36 -28 2 C-22.7756888 0.98581887 -17.61465594 0.68496099 -12.3125 0.4375 C-11.45849609 0.39431641 -10.60449219 0.35113281 -9.72460938 0.30664062 C-6.47766236 0.14595118 -3.25154154 0 0 0 Z " fill="#E9EBED" transform="translate(446,168)"/>
<path d="M0 0 C9.9 0 19.8 0 30 0 C29.34 0.99 28.68 1.98 28 3 C25.38623047 3.43237305 25.38623047 3.43237305 22.1171875 3.51171875 C20.36728516 3.56489258 20.36728516 3.56489258 18.58203125 3.61914062 C17.35871094 3.64169922 16.13539063 3.66425781 14.875 3.6875 C13.02841797 3.73874023 13.02841797 3.73874023 11.14453125 3.79101562 C8.0964449 3.87371564 5.04865429 3.94279427 2 4 C1.67749268 4.8343457 1.35498535 5.66869141 1.02270508 6.52832031 C0.58853271 7.61725586 0.15436035 8.70619141 -0.29296875 9.828125 C-0.71860107 10.9099707 -1.1442334 11.99181641 -1.58276367 13.10644531 C-3.48006383 16.98014066 -5.15778793 18.21292462 -9 20 C-9.33 19.01 -9.66 18.02 -10 17 C-8.35 15.68 -6.7 14.36 -5 13 C-3.35 8.71 -1.7 4.42 0 0 Z " fill="#484846" transform="translate(245,270)"/>
<path d="M0 0 C0 1.32 0 2.64 0 4 C-9.02140429 4.75741925 -17.94706663 5.13534286 -27 5 C-27 3.68 -27 2.36 -27 1 C-17.97582223 0.30962574 -9.05638678 -0.15178302 0 0 Z " fill="#EDEFF0" transform="translate(445,174)"/>
<path d="M0 0 C2.64 0 5.28 0 8 0 C8.33 0.99 8.66 1.98 9 3 C8.01 3 7.02 3 6 3 C6 6.63 6 10.26 6 14 C6.99 14 7.98 14 9 14 C9 14.99 9 15.98 9 17 C5.7 17 2.4 17 -1 17 C-1 16.01 -1 15.02 -1 14 C-0.01 14 0.98 14 2 14 C2 10.37 2 6.74 2 3 C1.01 3 0.02 3 -1 3 C-0.67 2.01 -0.34 1.02 0 0 Z " fill="#1A1A1A" transform="translate(295,327)"/>
<path d="M0 0 C0.33 0 0.66 0 1 0 C1 6.6 1 13.2 1 20 C1.66 20 2.32 20 3 20 C3.25394531 20.55429687 3.50789063 21.10859375 3.76953125 21.6796875 C4.11371094 22.40414063 4.45789063 23.12859375 4.8125 23.875 C5.31716797 24.95394531 5.31716797 24.95394531 5.83203125 26.0546875 C6.99467097 28.30542806 6.99467097 28.30542806 10 30 C15.44112103 30.63682656 21.0458048 30.4770976 26 28 C27.42055068 25.99863756 27.42055068 25.99863756 28 24 C28.33 24.99 28.66 25.98 29 27 C24.42634656 31.82087795 21.78866369 33.15911289 15.1875 33.375 C8.50798872 33.30239662 8.50798872 33.30239662 5.4375 30.9375 C-0.12578698 24.23302595 -0.4117973 18.47652428 -0.1875 10.0625 C-0.17396484 9.09248047 -0.16042969 8.12246094 -0.14648438 7.12304688 C-0.11138677 4.74810871 -0.06222275 2.37435622 0 0 Z " fill="#323232" transform="translate(363,257)"/>
<path d="M0 0 C0.66 0 1.32 0 2 0 C1.44302294 4.45004466 0.31359837 7.8491653 -1.72265625 11.8359375 C-2.26083984 12.89941406 -2.79902344 13.96289062 -3.35351562 15.05859375 C-3.91748047 16.15300781 -4.48144531 17.24742187 -5.0625 18.375 C-5.63033203 19.49261719 -6.19816406 20.61023438 -6.78320312 21.76171875 C-8.18163304 24.51157253 -9.58740669 27.25740261 -11 30 C-11.66 30 -12.32 30 -13 30 C-14.00484204 28.04414675 -15.00373805 26.08523763 -16 24.125 C-16.556875 23.03445312 -17.11375 21.94390625 -17.6875 20.8203125 C-19 18 -19 18 -19 16 C-16 17 -16 17 -14.3125 19.9375 C-13 23 -13 23 -13 25 C-12.34 25 -11.68 25 -11 25 C-10.76539063 24.21367187 -10.53078125 23.42734375 -10.2890625 22.6171875 C-8.62871547 17.95815311 -6.52056308 13.57704339 -4.375 9.125 C-3.95476562 8.24585938 -3.53453125 7.36671875 -3.1015625 6.4609375 C-2.0708308 4.30577122 -1.03690574 2.15220078 0 0 Z " fill="#181818" transform="translate(173,213)"/>
<path d="M0 0 C0.99 0.33 1.98 0.66 3 1 C2.236875 1.556875 1.47375 2.11375 0.6875 2.6875 C-4.14467751 6.84542018 -5.36285571 10.5221793 -5.87890625 16.796875 C-5.99556641 18.08464844 -6.11222656 19.37242187 -6.23242188 20.69921875 C-6.34359855 22.04938491 -6.45361104 23.39964741 -6.5625 24.75 C-6.78191983 27.41271489 -7.01454082 30.07327333 -7.25390625 32.734375 C-7.35002197 33.91225586 -7.4461377 35.09013672 -7.54516602 36.30371094 C-7.69526123 37.19348633 -7.84535645 38.08326172 -8 39 C-8.99 39.495 -8.99 39.495 -10 40 C-10.22032166 32.27650187 -10.0428947 24.68232478 -9.25 17 C-9.18828613 16.29496338 -9.12657227 15.58992676 -9.06298828 14.86352539 C-8.38993979 8.98589505 -6.22110052 5.08648837 -1.9375 1.0625 C-1.298125 0.711875 -0.65875 0.36125 0 0 Z " fill="#191919" transform="translate(124,197)"/>
<path d="M0 0 C4.69756866 1.65284823 7.39071893 3.74783826 10 8 C10.75 11.8125 10.75 11.8125 11 15 C10.67 14.01 10.34 13.02 10 12 C9.34 12 8.68 12 8 12 C7.566875 11.05125 7.13375 10.1025 6.6875 9.125 C5.20697799 5.79958063 5.20697799 5.79958063 2 4 C-1.06368065 3.60585063 -1.06368065 3.60585063 -4.4375 3.625 C-5.57058594 3.59664062 -6.70367187 3.56828125 -7.87109375 3.5390625 C-11.62959211 4.0927489 -12.63843341 5.11067926 -15 8 C-16.33333333 9.33333333 -17.66666667 10.66666667 -19 12 C-18.58424938 7.14957612 -16.58340022 5.15680495 -13 2 C-8.73157615 -0.8456159 -5.0082136 -0.50004005 0 0 Z " fill="#343434" transform="translate(383,196)"/>
<path d="M0 0 C3.86875085 -0.13755559 7.62639665 -0.26018464 10.59960938 2.4675293 C14.5238136 7.96827277 17.53754057 13.68753092 20.375 19.8125 C20.82488281 20.75287109 21.27476562 21.69324219 21.73828125 22.66210938 C25 29.59697948 25 29.59697948 25 33 C24.34 33 23.68 33 23 33 C22.6376123 32.20303711 22.27522461 31.40607422 21.90185547 30.58496094 C20.53987445 27.61139628 19.16290207 24.64576904 17.77539062 21.68408203 C17.17977698 20.4046755 16.59014937 19.12246349 16.00683594 17.83740234 C15.16366776 15.98272013 14.29895673 14.13944194 13.4296875 12.296875 C12.91647949 11.18666992 12.40327148 10.07646484 11.87451172 8.93261719 C8.98081949 4.40552276 4.79094418 2.21120501 0 0 Z " fill="#191919" transform="translate(260,197)"/>
<path d="M0 0 C2.97 0 5.94 0 9 0 C9 0.99 9 1.98 9 3 C8.01 3 7.02 3 6 3 C6 6.63 6 10.26 6 14 C6.99 14 7.98 14 9 14 C9 14.99 9 15.98 9 17 C6.03 17 3.06 17 0 17 C0 16.01 0 15.02 0 14 C0.99 14 1.98 14 3 14 C3 10.37 3 6.74 3 3 C2.01 3 1.02 3 0 3 C0 2.01 0 1.02 0 0 Z " fill="#080808" transform="translate(235,327)"/>
<path d="M0 0 C2.6938245 2.83943664 4.42070224 5.08974009 5 9 C0.99352249 7.6645075 0.24255364 5.47234113 -2 2 C-6.19395386 -0.09697693 -11.44594615 0.44114744 -16 1 C-18.56370217 2.39395213 -19.96039237 3.8530446 -22 6 C-22.66 6 -23.32 6 -24 6 C-22.35562552 2.16312622 -20.19726179 -1.05831638 -16.25 -2.75 C-9.89780435 -3.45579952 -5.47245299 -3.60684401 0 0 Z " fill="#3E3E3E" transform="translate(335,199)"/>
<path d="M0 0 C0 0.33 0 0.66 0 1 C-0.90621094 1.14695312 -1.81242187 1.29390625 -2.74609375 1.4453125 C-13.70238253 3.46266091 -21.3106163 6.58791456 -27.78125 15.8984375 C-29.66710553 19.1503294 -30.85062023 22.42415182 -32 26 C-32.33 26 -32.66 26 -33 26 C-33.88084911 20.42128899 -31.68186518 16.93632526 -28.765625 12.3984375 C-21.44559578 2.45485799 -12.05853069 -0.81141515 0 0 Z " fill="#1D2931" transform="translate(435,107)"/>
<path d="M0 0 C2.5 2.3125 2.5 2.3125 5 5 C5 8.99904969 3.27413033 10.80200422 1 14 C0.67 13.34 0.34 12.68 0 12 C-0.99 12 -1.98 12 -3 12 C-3 8.37 -3 4.74 -3 1 C-2.01 0.67 -1.02 0.34 0 0 Z " fill="#F5F5F5" transform="translate(304,329)"/>
<path d="M0 0 C0.99 0 1.98 0 3 0 C3 0.66 3 1.32 3 2 C3.99 2 4.98 2 6 2 C6 5.63 6 9.26 6 13 C5.01 13 4.02 13 3 13 C2.67 13.99 2.34 14.98 2 16 C1.34 15.67 0.68 15.34 0 15 C0 10.05 0 5.1 0 0 Z " fill="#DCDCDC" transform="translate(232,328)"/>
<path d="M0 0 C3 1 3 1 4.1875 2.8125 C5 5 5 5 5 9 C4.34 9 3.68 9 3 9 C2.01 11.64 1.02 14.28 0 17 C-0.66 17 -1.32 17 -2 17 C-2.22084624 10.90218999 -2.01167675 5.78357065 0 0 Z " fill="#111111" transform="translate(184,327)"/>
<path d="M0 0 C2.87056733 1.9820584 4.1108453 3.7000709 5.625 6.8125 C4.635 6.8125 3.645 6.8125 2.625 6.8125 C1.7278125 5.83603516 1.7278125 5.83603516 0.8125 4.83984375 C-2.0270479 2.20819132 -3.56044847 2.30347716 -7.375 2.375 C-8.40625 2.37628906 -9.4375 2.37757813 -10.5 2.37890625 C-13.64682056 2.85349468 -15.04518047 3.70110105 -17.375 5.8125 C-17.375 4.4925 -17.375 3.1725 -17.375 1.8125 C-12.40179613 -2.67942608 -5.94845215 -2.09297391 0 0 Z " fill="#262626" transform="translate(438.375,197.1875)"/>
<path d="M0 0 C0.33 0 0.66 0 1 0 C1.08636719 0.59167969 1.17273438 1.18335938 1.26171875 1.79296875 C2.24831488 7.34144055 3.43436527 10.34749222 8 14 C10.29629994 15.14814997 12.07698086 15.30769809 14.625 15.5625 C15.44226563 15.64628906 16.25953125 15.73007812 17.1015625 15.81640625 C17.72804687 15.87699219 18.35453125 15.93757813 19 16 C19 16.66 19 17.32 19 18 C9.68788834 18.90932013 9.68788834 18.90932013 5.78125 16.8046875 C2.69595084 14.20310049 0.53931943 11.76842823 -1 8 C-1.1875 4.3125 -1.1875 4.3125 -1 1 C-0.67 0.67 -0.34 0.34 0 0 Z " fill="#0F0F0D" transform="translate(216,272)"/>
<path d="M0 0 C1.32 0.33 2.64 0.66 4 1 C4.797837 7.69613196 5.12910853 14.25766581 5 21 C4.34 21 3.68 21 3 21 C2.67 21.66 2.34 22.32 2 23 C1.34 15.41 0.68 7.82 0 0 Z " fill="#3C3C3C" transform="translate(180,253)"/>
<path d="M0 0 C0.33 0.66 0.66 1.32 1 2 C2.32 2 3.64 2 5 2 C5 5.63 5 9.26 5 13 C3.68 13 2.36 13 1 13 C0.67 13.66 0.34 14.32 0 15 C0 10.05 0 5.1 0 0 Z " fill="#F3F3F3" transform="translate(292,328)"/>
<path d="M0 0 C0.66 0 1.32 0 2 0 C2.15855469 0.60328125 2.31710938 1.2065625 2.48046875 1.828125 C3.58923654 5.62611411 4.5382795 8.45679941 7.125 11.5 C11.01763722 13.53094116 14.65817307 13.81081364 19 14 C19 14.66 19 15.32 19 16 C10.24237271 16.45913774 10.24237271 16.45913774 6.125 14.9375 C2.22592508 11.3824611 0.13503061 7.85667092 -0.25 2.5625 C-0.1675 1.716875 -0.085 0.87125 0 0 Z " fill="#101010" transform="translate(183,274)"/>
<path d="M0 0 C2.87579981 4.31369972 4 7.80734761 4 13 C1.36 13 -1.28 13 -4 13 C-2.68 8.71 -1.36 4.42 0 0 Z " fill="#F2F2F2" transform="translate(260,235)"/>
<path d="M0 0 C0.66 0 1.32 0 2 0 C4.29612756 16.70842825 4.29612756 16.70842825 4 25 C3.34 25 2.68 25 2 25 C0.7472283 16.61090382 -0.36011137 8.50262969 0 0 Z " fill="#181818" transform="translate(207,237)"/>
<path d="M0 0 C3.00048246 3.58211445 4.77698774 7.53012116 6.6875 11.75 C7.00783203 12.44738281 7.32816406 13.14476562 7.65820312 13.86328125 C8.44306261 15.57357208 9.22211648 17.28652507 10 19 C9.01 19.33 8.02 19.66 7 20 C5.81796262 17.79875692 4.65459892 15.59058171 3.5 13.375 C2.99919922 12.44880859 2.99919922 12.44880859 2.48828125 11.50390625 C0.41530572 7.48487206 -0.38860447 4.51058755 0 0 Z " fill="#1E2727" transform="translate(146,209)"/>
<path d="M0 0 C1.9795687 1.64440363 2.91935312 2.49923917 3.3359375 5.0859375 C3.35527344 6.21902344 3.35527344 6.21902344 3.375 7.375 C3.66031829 11.12056139 3.8389439 11.81416603 6.4375 14.8125 C7.7059375 15.8953125 7.7059375 15.8953125 9 17 C10.3125 19.3125 10.3125 19.3125 11 21 C5.97101246 19.56314642 4.04322498 17.05763331 1 13 C-0.32229189 10.35541621 -0.09677194 8.32238699 -0.0625 5.375 C-0.05347656 4.37210937 -0.04445313 3.36921875 -0.03515625 2.3359375 C-0.02355469 1.56507813 -0.01195313 0.79421875 0 0 Z " fill="#373737" transform="translate(109,269)"/>
<path d="M0 0 C0.66 0.33 1.32 0.66 2 1 C1.52949219 1.64066406 1.05898437 2.28132812 0.57421875 2.94140625 C-2.9404203 7.82406216 -5.91227798 12.35086982 -8 18 C-9.1640625 16.34765625 -9.1640625 16.34765625 -10 14 C-9.0234375 11.30859375 -9.0234375 11.30859375 -7.375 8.4375 C-6.84648437 7.48746094 -6.31796875 6.53742188 -5.7734375 5.55859375 C-4.04861775 3.07014234 -2.52102671 1.63481427 0 0 Z " fill="#252525" transform="translate(184,197)"/>
<path d="M0 0 C0.66 0.99 1.32 1.98 2 3 C4.68247824 6.84877312 7.31372582 7.44702868 11.75 8.25 C13.49773637 8.51536311 15.24721668 8.77032494 17 9 C17 9.66 17 10.32 17 11 C11.96103417 11.3585035 8.12237862 11.54114683 3.5 9.3125 C0.90857115 6.91542831 -0.19076072 5.41678805 -1 2 C-0.67 1.34 -0.34 0.68 0 0 Z " fill="#141414" transform="translate(312,279)"/>
<path d="M0 0 C0.33 0.99 0.66 1.98 1 3 C1.53625 2.9278125 2.0725 2.855625 2.625 2.78125 C10.75389824 1.81861731 18.82966291 1.90876795 27 2 C27 2.33 27 2.66 27 3 C18.30019136 4.01286753 9.74507107 4.10621544 1 4 C0.67 5.32 0.34 6.64 0 8 C0 7.01 0 6.02 0 5 C-1.32 5 -2.64 5 -4 5 C-4 4.34 -4 3.68 -4 3 C-2.68 3 -1.36 3 0 3 C0 2.01 0 1.02 0 0 Z " fill="#0F2236" transform="translate(417,171)"/>
<path d="M0 0 C0.33 1.32 0.66 2.64 1 4 C3.97 4 6.94 4 10 4 C10.33 3.01 10.66 2.02 11 1 C13 3 13 3 13 6 C8.05 6 3.1 6 -2 6 C-1 1 -1 1 0 0 Z " fill="#202020" transform="translate(255,245)"/>
<path d="M0 0 C0 0.99 0 1.98 0 3 C-0.59167969 3.03738281 -1.18335938 3.07476562 -1.79296875 3.11328125 C-6.66571569 3.51868108 -9.90055199 4.14280897 -14 7 C-14.66 7 -15.32 7 -16 7 C-15.0195412 4.41515408 -14.06077857 3.05156969 -11.9375 1.25 C-7.9103375 -0.46368617 -4.31479896 -0.2538117 0 0 Z " fill="#3D3D3D" transform="translate(264,196)"/>
<path d="M0 0 C5.61 0 11.22 0 17 0 C16.67 0.66 16.34 1.32 16 2 C13.22947819 2.92350727 11.43311242 3.16329585 8.5625 3.1875 C7.80066406 3.20167969 7.03882813 3.21585938 6.25390625 3.23046875 C3.76652685 2.97612666 2.15191894 2.24017196 0 1 C0 0.67 0 0.34 0 0 Z " fill="#FDFDFD" transform="translate(423,187)"/>
<path d="M0 0 C0.66 0.33 1.32 0.66 2 1 C2 1.66 2 2.32 2 3 C6.95 3 11.9 3 17 3 C17 3.33 17 3.66 17 4 C15.94039063 4.10957031 14.88078125 4.21914062 13.7890625 4.33203125 C12.4009597 4.49147549 11.01294302 4.65167084 9.625 4.8125 C8.92632812 4.88275391 8.22765625 4.95300781 7.5078125 5.02539062 C5.65667662 5.24788292 3.82461795 5.61662522 2 6 C1.01 7.485 1.01 7.485 0 9 C0 7.68 0 6.36 0 5 C-0.99 5 -1.98 5 -3 5 C-3 4.34 -3 3.68 -3 3 C-2.01 3 -1.02 3 0 3 C0 2.01 0 1.02 0 0 Z " fill="#1F3143" transform="translate(416,165)"/>
<path d="M0 0 C2.1681336 2.1681336 4.28419127 4.3225955 6.3125 6.625 C9.58722649 9.51894434 11.784837 10.0908472 16 11 C16 11.33 16 11.66 16 12 C8.45095252 13.05686665 8.45095252 13.05686665 5.1015625 10.6171875 C2.20064044 7.34834361 0.27193297 4.48689394 0 0 Z " fill="#0A1313" transform="translate(147,265)"/>
<path d="M0 0 C0.66 0 1.32 0 2 0 C2.25515919 7.52719602 1.28297723 14.58851545 0 22 C-0.33 22 -0.66 22 -1 22 C-1.02716824 19.45826023 -1.04691969 16.91681585 -1.0625 14.375 C-1.07087891 13.66214844 -1.07925781 12.94929688 -1.08789062 12.21484375 C-1.10710296 8.02655562 -0.8267327 4.1271538 0 0 Z " fill="#0F0F0F" transform="translate(111,257)"/>
<path d="M0 0 C1.90389849 2.85584773 2.69462177 4.9311762 3.625 8.1875 C3.88539063 9.08855469 4.14578125 9.98960937 4.4140625 10.91796875 C4.60742188 11.60503906 4.80078125 12.29210937 5 13 C3 15 3 15 0.8359375 15.1953125 C-0.38222656 15.16050781 -0.38222656 15.16050781 -1.625 15.125 C-2.44226563 15.10695312 -3.25953125 15.08890625 -4.1015625 15.0703125 C-4.72804688 15.04710937 -5.35453125 15.02390625 -6 15 C-6 14.67 -6 14.34 -6 14 C-3.36 14 -0.72 14 2 14 C1.77183594 13.15695313 1.54367187 12.31390625 1.30859375 11.4453125 C0.87740234 9.80175781 0.87740234 9.80175781 0.4375 8.125 C0.14746094 7.03445312 -0.14257812 5.94390625 -0.44140625 4.8203125 C-1 2 -1 2 0 0 Z " fill="#3E3E3E" transform="translate(262,234)"/>
<path d="M0 0 C0.66 0 1.32 0 2 0 C1.875 1.8125 1.875 1.8125 1 4 C-3.87590536 7.41313375 -8.29440913 7.34233545 -14 7 C-14 6.34 -14 5.68 -14 5 C-13.24074219 4.89042969 -12.48148437 4.78085937 -11.69921875 4.66796875 C-10.70535156 4.50941406 -9.71148437 4.35085938 -8.6875 4.1875 C-7.70136719 4.03667969 -6.71523437 3.88585937 -5.69921875 3.73046875 C-2.82427551 2.95244504 -1.92874986 2.16613446 0 0 Z " fill="#0C0F0F" transform="translate(134,283)"/>
<path d="M0 0 C2.43818936 3.65728405 2.6716692 6.93287895 3.125 11.1875 C3.21136719 11.93708984 3.29773438 12.68667969 3.38671875 13.45898438 C3.59838382 15.30517412 3.80015464 17.15249344 4 19 C3.34 19.33 2.68 19.66 2 20 C-0.1103435 15.72115394 -0.24128739 11.86135858 -0.125 7.1875 C-0.11597656 6.49462891 -0.10695313 5.80175781 -0.09765625 5.08789062 C-0.07426157 3.39177605 -0.03839641 1.69584129 0 0 Z " fill="#333A3F" transform="translate(401,130)"/>
<path d="M0 0 C4.97233483 -0.42864955 7.0745179 -0.58271095 11.375 2.125 C14.07847799 5.08595209 15.10064077 7.1327553 16 11 C11.98587091 9.66195697 11.26994046 7.47584633 9 4 C5.81237635 1.87491756 3.73487777 1.4979837 0 1 C0 0.67 0 0.34 0 0 Z " fill="#1A1A1A" transform="translate(324,197)"/>
<path d="M0 0 C0 0.66 0 1.32 0 2 C-4.64564624 4.47767799 -9.85048438 4.81170331 -15 4 C-16.8046875 2.48046875 -16.8046875 2.48046875 -18 1 C-17.09636719 1.01160156 -16.19273437 1.02320313 -15.26171875 1.03515625 C-13.49248047 1.04869141 -13.49248047 1.04869141 -11.6875 1.0625 C-10.51574219 1.07410156 -9.34398437 1.08570313 -8.13671875 1.09765625 C-5.22080663 1.00687443 -2.85685711 0 0 0 Z " fill="#223446" transform="translate(441,188)"/>
<path d="M0 0 C0.99 0.33 1.98 0.66 3 1 C3.33 2.98 3.66 4.96 4 7 C-0.75 7.125 -0.75 7.125 -3 6 C-2.625 3.5625 -2.625 3.5625 -2 1 C-1.34 0.67 -0.68 0.34 0 0 Z " fill="#646464" transform="translate(207,331)"/>
<path d="M0 0 C-3 2 -3 2 -5.4375 3.25 C-8.56003317 5.38246168 -10.0701327 7.7835545 -12 11 C-12.33 10.01 -12.66 9.02 -13 8 C-9.4955047 1.86713322 -7.11558079 -0.31624804 0 0 Z " fill="#1E151A" transform="translate(377,197)"/>
<path d="M0 0 C2 3 2 3 2.875 5 C4.21101399 7.37513597 5.82629658 8.40595083 8 10 C8 10.66 8 11.32 8 12 C3.6154895 10.66028846 1.3838034 8.94244409 -1 5 C-0.75 2.1875 -0.75 2.1875 0 0 Z " fill="#242424" transform="translate(419,278)"/>
<path d="M0 0 C1.84988713 2.10867963 2.94960239 3.37769905 3.1796875 6.21875 C2.16205534 13.83794466 2.16205534 13.83794466 -1 17 C-1.33 16.01 -1.66 15.02 -2 14 C-1.67 13.34 -1.34 12.68 -1 12 C-0.77141886 9.9625237 -0.58975722 7.91959697 -0.4375 5.875 C-0.35371094 4.77929688 -0.26992187 3.68359375 -0.18359375 2.5546875 C-0.12300781 1.71164062 -0.06242188 0.86859375 0 0 Z " fill="#11292A" transform="translate(137,267)"/>
<path d="M0 0 C1.8125 2.625 1.8125 2.625 3 5 C2.01 5 1.02 5 0 5 C-0.515625 4.360625 -1.03125 3.72125 -1.5625 3.0625 C-5.26905333 -0.07381436 -9.27871951 0.18020155 -14 0 C-14 -0.33 -14 -0.66 -14 -1 C-4.0296496 -2.60742033 -4.0296496 -2.60742033 0 0 Z " fill="#363636" transform="translate(441,199)"/>
<path d="M0 0 C0.33 0 0.66 0 1 0 C1.3125 2.75 1.3125 2.75 1 6 C-1.72938257 8.80519876 -4.10476671 10.4229284 -8 11 C-8 10.01 -8 9.02 -8 8 C-6.576875 7.4121875 -6.576875 7.4121875 -5.125 6.8125 C-1.65872662 4.80206144 -1.0197307 3.77300358 0 0 Z " fill="#232323" transform="translate(337,279)"/>
<path d="M0 0 C4.62 0 9.24 0 14 0 C13.67 0.66 13.34 1.32 13 2 C12.34 2 11.68 2 11 2 C11 2.99 11 3.98 11 5 C11.66 5.33 12.32 5.66 13 6 C11.35 6 9.7 6 8 6 C7.67 4.68 7.34 3.36 7 2 C4.69 1.67 2.38 1.34 0 1 C0 0.67 0 0.34 0 0 Z " fill="#5A6775" transform="translate(437,172)"/>
<path d="M0 0 C1.73267972 2.59901958 2.48482049 4.13842116 3.25 7.0625 C3.44078125 7.75472656 3.6315625 8.44695312 3.828125 9.16015625 C3.88484375 9.76730469 3.9415625 10.37445313 4 11 C3.34 11.66 2.68 12.32 2 13 C-0.44038726 8.11922548 -1.46845421 5.47332932 0 0 Z " fill="#2F2D25" transform="translate(275,271)"/>
<path d="M0 0 C1.32 0.66 2.64 1.32 4 2 C3.67 3.98 3.34 5.96 3 8 C2.01 7.67 1.02 7.34 0 7 C-1.125 2.25 -1.125 2.25 0 0 Z " fill="#1E1E1E" transform="translate(189,334)"/>
<path d="M0 0 C0.33 0.66 0.66 1.32 1 2 C0.00390625 4.3828125 0.00390625 4.3828125 -1.4375 7.125 C-1.91058594 8.03507813 -2.38367188 8.94515625 -2.87109375 9.8828125 C-3.24363281 10.58148438 -3.61617187 11.28015625 -4 12 C-4.66 11.67 -5.32 11.34 -6 11 C-3.76687117 3.98159509 -3.76687117 3.98159509 -2 1 C-1.34 0.67 -0.68 0.34 0 0 Z " fill="#151515" transform="translate(249,202)"/>
<path d="M0 0 C1.63001953 0.01353516 1.63001953 0.01353516 3.29296875 0.02734375 C4.12441406 0.03894531 4.95585937 0.05054687 5.8125 0.0625 C5.8125 0.3925 5.8125 0.7225 5.8125 1.0625 C4.70841797 1.24425781 4.70841797 1.24425781 3.58203125 1.4296875 C2.60621094 1.59726563 1.63039063 1.76484375 0.625 1.9375 C-0.33792969 2.09992188 -1.30085938 2.26234375 -2.29296875 2.4296875 C-5.09782604 3.04289517 -7.55974747 3.91916343 -10.1875 5.0625 C-9.875 3.125 -9.875 3.125 -9.1875 1.0625 C-5.90230525 -0.03256492 -3.45086585 -0.03710608 0 0 Z " fill="#EDBA6C" transform="translate(426.1875,105.9375)"/>
<path d="M0 0 C0.66 0.99 1.32 1.98 2 3 C-3.14285714 8.57142857 -3.14285714 8.57142857 -7 9 C-7 8.01 -7 7.02 -7 6 C-5.5459375 5.62875 -5.5459375 5.62875 -4.0625 5.25 C-2.5465625 4.63125 -2.5465625 4.63125 -1 4 C-0.03122943 1.96756452 -0.03122943 1.96756452 0 0 Z " fill="#292929" transform="translate(390,281)"/>
<path d="M0 0 C8.19256018 0.19256018 8.19256018 0.19256018 11.5625 3.5625 C12.036875 4.366875 12.51125 5.17125 13 6 C12.34 6.66 11.68 7.32 11 8 C10.29875 7.21625 9.5975 6.4325 8.875 5.625 C5.90842914 2.91639182 3.8417484 1.98277285 0 1 C0 0.67 0 0.34 0 0 Z " fill="#131313" transform="translate(260,197)"/>
<path d="M0 0 C0.99 0 1.98 0 3 0 C3 1.98 3 3.96 3 6 C2.01 5.67 1.02 5.34 0 5 C0 5.66 0 6.32 0 7 C-0.66 7 -1.32 7 -2 7 C-1.125 2.25 -1.125 2.25 0 0 Z " fill="#0D0D0D" transform="translate(180,248)"/>
<path d="M0 0 C0.66 0 1.32 0 2 0 C1.5205537 4.21912747 0.83374881 6.79663178 -2 10 C-3.39195915 5.82412255 -1.82323219 3.86525224 0 0 Z " fill="#1F1F1F" transform="translate(242,213)"/>
<path d="M0 0 C-0.125 1.8125 -0.125 1.8125 -1 4 C-4.0625 5.75 -4.0625 5.75 -7 7 C-7 6.01 -7 5.02 -7 4 C-2.65714286 0 -2.65714286 0 0 0 Z " fill="#26210D" transform="translate(242,283)"/>
<path d="M0 0 C0.66 0 1.32 0 2 0 C2.99 2.97 3.98 5.94 5 9 C2 8 2 8 0.8125 6.1875 C0 4 0 4 0 0 Z " fill="#272727" transform="translate(300,263)"/>
<path d="M0 0 C0.66 0.33 1.32 0.66 2 1 C2 1.66 2 2.32 2 3 C-3.47619048 8 -3.47619048 8 -6 8 C-4.55746343 4.63408134 -2.66735273 2.48952921 0 0 Z " fill="#222222" transform="translate(317,197)"/>
<path d="M0 0 C0.99 0.33 1.98 0.66 3 1 C3.6875 3.0625 3.6875 3.0625 4 5 C2.02 5 0.04 5 -2 5 C-1.34 3.35 -0.68 1.7 0 0 Z " fill="#141414" transform="translate(208,327)"/>
<path d="M0 0 C2.97 0 5.94 0 9 0 C9 0.99 9 1.98 9 3 C6.36 3 3.72 3 1 3 C0.67 2.01 0.34 1.02 0 0 Z " fill="#4F4F4F" transform="translate(126,196)"/>
<path d="M0 0 C0.66 0 1.32 0 2 0 C1.46930939 3.82097239 0.50298434 6.06171403 -2 9 C-3 6 -3 6 -1.5625 2.8125 C-1.046875 1.884375 -0.53125 0.95625 0 0 Z " fill="#141414" transform="translate(238,222)"/>
<path d="M0 0 C0.33 0 0.66 0 1 0 C1.36923077 5.41538462 1.36923077 5.41538462 -0.5 8.375 C-0.995 8.91125 -1.49 9.4475 -2 10 C-2.6875 8.375 -2.6875 8.375 -3 6 C-1.5625 2.75 -1.5625 2.75 0 0 Z " fill="#2D2D2D" transform="translate(177,205)"/>
<path d="M0 0 C1.125 1.6875 1.125 1.6875 2 4 C1.125 6.75 1.125 6.75 0 9 C-0.99 8.67 -1.98 8.34 -3 8 C-2.01 5.36 -1.02 2.72 0 0 Z " fill="#384859" transform="translate(460,143)"/>
<path d="M0 0 C0.66 0 1.32 0 2 0 C4.09230769 4.43076923 4.09230769 4.43076923 3.625 7.3125 C3.41875 7.869375 3.2125 8.42625 3 9 C3 8.01 3 7.02 3 6 C2.34 6 1.68 6 1 6 C0.67 4.02 0.34 2.04 0 0 Z " fill="#252525" transform="translate(390,202)"/>
<path d="M0 0 C3.63 0.33 7.26 0.66 11 1 C11 1.33 11 1.66 11 2 C5.04296875 3.07421875 5.04296875 3.07421875 3 3 C2.01 2.01 1.02 1.02 0 0 Z " fill="#384859" transform="translate(423,189)"/>
<path d="M0 0 C3.95820859 0.56545837 6.6659053 1.80902348 10 4 C9.34 4.66 8.68 5.32 8 6 C6.66402348 5.19185349 5.331275 4.37836819 4 3.5625 C3.2575 3.11003906 2.515 2.65757813 1.75 2.19140625 C1.1725 1.79824219 0.595 1.40507813 0 1 C0 0.67 0 0.34 0 0 Z " fill="#243548" transform="translate(441,109)"/>
</svg>
